<?xml version="1.0" encoding="UTF-8"?>
<svg version="1.1" xmlns="http://www.w3.org/2000/svg" width="1024" height="1024">
<path d="M0 0 C1.32 0 2.64 0 4 0 C6.15356806 2.28408734 7.77303266 4.6182822 9.375 7.3125 C11.28996558 10.47955846 13.50812986 13.32299736 15.79296875 16.23046875 C17 18 17 18 17 20 C17.66 20 18.32 20 19 20 C19.95737648 21.39564216 20.9068505 22.79743131 21.81347656 24.2265625 C23.91039085 27.36071588 26.40825795 30.15423713 28.875 33 C29.37902344 33.59039062 29.88304687 34.18078125 30.40234375 34.7890625 C32.95845766 37.75703108 35.56734123 40.58795705 38.3828125 43.3125 C41 46 41 46 41 48 C41.66 48 42.32 48 43 48 C44.48046875 49.5390625 44.48046875 49.5390625 46.1875 51.625 C49.02626268 54.97721872 51.97551078 57.77204817 55.36328125 60.55078125 C57.03468263 62.03070944 58.40871384 63.57937985 59.8125 65.3125 C61.71869511 68.03075197 61.71869511 68.03075197 64 69 C64 69.66 64 70.32 64 71 C65.485 71.495 65.485 71.495 67 72 C67 72.66 67 73.32 67 74 C67.66 74 68.32 74 69 74 C69 74.66 69 75.32 69 76 C69.57492188 76.24621094 70.14984375 76.49242188 70.7421875 76.74609375 C73.35639827 78.19793053 75.06336208 79.90287549 77.125 82.0625 C79.77905 84.91571933 79.77905 84.91571933 83 87 C83 87.66 83 88.32 83 89 C83.58265625 89.268125 84.1653125 89.53625 84.765625 89.8125 C87.02786601 91.01480991 88.80576318 92.33825913 90.75 94 C91.36359375 94.515625 91.9771875 95.03125 92.609375 95.5625 C94 97 94 97 94 99 C94.556875 99.2475 95.11375 99.495 95.6875 99.75 C98.42410913 101.22924818 100.67650869 102.93467439 103 105 C103 105.66 103 106.32 103 107 C103.61875 107.309375 104.2375 107.61875 104.875 107.9375 C106.25 108.625 107.625 109.3125 109 110 C109 110.66 109 111.32 109 112 C109.61875 112.309375 110.2375 112.61875 110.875 112.9375 C112.25 113.625 113.625 114.3125 115 115 C113.77484364 113.43435354 112.54466581 111.87263601 111.3125 110.3125 C110.62800781 109.44238281 109.94351563 108.57226562 109.23828125 107.67578125 C106.9569149 104.94849338 104.53448878 102.49237492 102 100 C100.07962671 98.02248275 98.19264472 96.01571978 96.3125 94 C95.82716797 93.49210937 95.34183594 92.98421875 94.84179688 92.4609375 C92.07461879 89.48383556 90.22262208 86.88951119 89 83 C88.34 83 87.68 83 87 83 C85.81640625 81.35546875 85.81640625 81.35546875 84.5625 79.1875 C83.27758742 76.97616142 82.16501761 75.16268795 80.33984375 73.36328125 C79 72 79 72 79 70 C78.34 70 77.68 70 77 70 C76.44699219 69.00484375 75.89398438 68.0096875 75.32421875 66.984375 C72.61313288 62.23848119 69.53094558 57.76251986 66.44726562 53.25390625 C64.59954093 50.52248714 63.04834871 48.14504613 62 45 C62.99 45 63.98 45 65 45 C64.360625 43.88625 63.72125 42.7725 63.0625 41.625 C60.63845267 36.78544071 60.31133119 32.33359478 60 27 C59.82272632 25.29057522 59.63581439 23.58211172 59.4375 21.875 C59.2209375 19.956875 59.2209375 19.956875 59 18 C59.99 17.67 60.98 17.34 62 17 C62 15.68 62 14.36 62 13 C65.23927549 13.25260405 66.07852277 14.08733655 68.296875 16.5546875 C69.12531261 17.65345031 69.9424529 18.76079344 70.75 19.875 C71.18393066 20.45636719 71.61786133 21.03773437 72.06494141 21.63671875 C73.38838259 23.41616804 74.69618554 25.20613457 76 27 C76.75539063 28.03382812 77.51078125 29.06765625 78.2890625 30.1328125 C79.60253763 31.93822589 80.91061921 33.74758767 82.2109375 35.5625 C83.49508889 37.31208617 84.84197014 39.01627273 86.2265625 40.6875 C88 43 88 43 88 45 C89.32 45 90.64 45 92 45 C92 45.66 92 46.32 92 47 C92.928125 47.37125 92.928125 47.37125 93.875 47.75 C96.35068687 49.20628639 96.95125002 50.37812506 98 53 C98.66 53 99.32 53 100 53 C101.51984883 54.67535459 102.96706453 56.41705622 104.375 58.1875 C105.14585937 59.15042969 105.91671875 60.11335938 106.7109375 61.10546875 C108.18489636 62.96929727 109.65644453 64.83503606 111.125 66.703125 C113.03301954 69.12843137 113.03301954 69.12843137 115.625 71.5625 C117.70981899 73.70218264 118.88811642 75.27083122 120 78 C120.66 78 121.32 78 122 78 C122 78.66 122 79.32 122 80 C122.66 80 123.32 80 124 80 C125.625 82 125.625 82 127 84 C127.91829344 81.10384376 128.49341074 78.98894825 127.09375 76.18359375 C125.27094742 73.6105523 123.37070105 71.35529074 121.09130859 69.1706543 C119.0635077 67.06591723 117.57196391 65.02706954 116.01953125 62.55859375 C115.49552734 61.72779297 114.97152344 60.89699219 114.43164062 60.04101562 C113.89732422 59.18185547 113.36300781 58.32269531 112.8125 57.4375 C112.26658203 56.57447266 111.72066406 55.71144531 111.15820312 54.82226562 C107.13576802 48.40730407 107.13576802 48.40730407 106 45 C107.32 44.67 108.64 44.34 110 44 C109.67 43.2575 109.34 42.515 109 41.75 C108 39 108 39 108 35 C108.66 35 109.32 35 110 35 C110 34.01 110 33.02 110 32 C111.73828125 32.15625 111.73828125 32.15625 114 33 C116.04296875 35.46875 116.04296875 35.46875 118.1875 38.5 C121.25432239 42.56588617 121.25432239 42.56588617 125.5859375 44.94921875 C128.30227643 45.27014543 128.30227643 45.27014543 132 45 C132.13535156 45.54527344 132.27070313 46.09054688 132.41015625 46.65234375 C134.08447764 52.51748154 136.62725131 56.51894719 140.57421875 61.15234375 C142 63 142 63 142 65 C142.66 65 143.32 65 144 65 C144.94089918 66.44495231 145.8786953 67.8920679 146.796875 69.3515625 C148.7600233 72.04133062 151.42824736 73.91045098 154 76 C155.35827971 77.64639965 156.69254251 79.31295807 158 81 C160.39507875 83.46350957 162.85173076 85.85647338 165.3203125 88.24609375 C166.14273438 89.05175781 166.96515625 89.85742188 167.8125 90.6875 C168.60269531 91.45449219 169.39289063 92.22148438 170.20703125 93.01171875 C172 95 172 95 172 97 C173.32 97.33 174.64 97.66 176 98 C176 97.34 176 96.68 176 96 C177.32 96 178.64 96 180 96 C180.66 95.34 181.32 94.68 182 94 C182 94.66 182 95.32 182 96 C182.99 95.67 183.98 95.34 185 95 C185 94.34 185 93.68 185 93 C188.96 93.66 192.92 94.32 197 95 C197.33 95.99 197.66 96.98 198 98 C198.721875 98.12375 199.44375 98.2475 200.1875 98.375 C202.96009349 98.99113189 205.38129929 99.91731029 208 101 C207.73445312 100.175 207.46890625 99.35 207.1953125 98.5 C205.14060059 91.78094209 203.56212404 85.27751337 202.6875 78.3125 C202.59936035 77.62994141 202.5112207 76.94738281 202.42041016 76.24414062 C202.06060328 73.08292349 201.9801232 71.0596304 203 68 C202.52940002 66.05172224 202.52940002 66.05172224 201.63671875 64.015625 C201.32669922 63.24476562 201.01667969 62.47390625 200.69726562 61.6796875 C200.36404297 60.87789062 200.03082031 60.07609375 199.6875 59.25 C193.29595005 43.62336484 193.29595005 43.62336484 195 38 C195.66 38 196.32 38 197 38 C197 37.01 197 36.02 197 35 C198.65 35.33 200.3 35.66 202 36 C202.66 35.01 203.32 34.02 204 33 C207.49107379 34.16369126 207.85222763 34.88973538 209.6875 37.9375 C210.12449219 38.64777344 210.56148437 39.35804687 211.01171875 40.08984375 C212 42 212 42 212 44 C214.97 44.99 214.97 44.99 218 46 C217.67 46.99 217.34 47.98 217 49 C217.66 49 218.32 49 219 49 C220.98 53.95 220.98 53.95 223 59 C223.33 57.68 223.66 56.36 224 55 C224.66 55 225.32 55 226 55 C226.33 53.68 226.66 52.36 227 51 C230.96 51.495 230.96 51.495 235 52 C235.12375 52.804375 235.2475 53.60875 235.375 54.4375 C235.58125 55.283125 235.7875 56.12875 236 57 C236.66 57.33 237.32 57.66 238 58 C239 60 240 62 241 64 C241.98249172 65.51152573 242.98380579 67.01092333 244 68.5 C246.30930358 71.89870478 248.19221401 75.30582863 250 79 C251.30982144 81.10762177 252.64920339 83.19170782 254.01171875 85.265625 C255 87 255 87 255 89 C255.66 89.33 256.32 89.66 257 90 C257 90.99 257 91.98 257 93 C257.66 93 258.32 93 259 93 C259.680625 94.423125 259.680625 94.423125 260.375 95.875 C261.80238254 99.00313679 261.80238254 99.00313679 264 101 C264 101.99 264 102.98 264 104 C265.485 103.505 265.485 103.505 267 103 C267.103125 103.598125 267.20625 104.19625 267.3125 104.8125 C267.82693928 107.0389487 267.82693928 107.0389487 269.375 108.375 C271.61062337 110.61062337 272.63694766 113.16030763 274 116 C274.99414593 117.67016516 275.9935725 119.33720673 277 121 C277.350625 121.721875 277.70125 122.44375 278.0625 123.1875 C279.65908995 126.27424057 281.76116251 127.88954143 285 129 C287.57616923 128.16953416 287.57616923 128.16953416 290 127 C294.45139547 127 298.5916595 127.33459011 303 128 C303 128.66 303 129.32 303 130 C304.32 130.33 305.64 130.66 307 131 C307 132.32 307 133.64 307 135 C307.99 135 308.98 135 310 135 C311 137 311 137 311.375 139.0625 C311.58125 139.701875 311.7875 140.34125 312 141 C312.99 141.33 313.98 141.66 315 142 C315.33 142.99 315.66 143.98 316 145 C316.495 145.474375 316.99 145.94875 317.5 146.4375 C319.24185971 148.25193719 319.57855013 149.55559077 320 152 C320.66 152 321.32 152 322 152 C322 152.66 322 153.32 322 154 C323.32 154.33 324.64 154.66 326 155 C326 155.66 326 156.32 326 157 C326.66 157.33 327.32 157.66 328 158 C328.4640625 158.9590625 328.4640625 158.9590625 328.9375 159.9375 C329.95345922 162.31971493 329.95345922 162.31971493 333 164 C333 164.66 333 165.32 333 166 C333.66 166 334.32 166 335 166 C337 169 337 169 337 172 C337.66 172 338.32 172 339 172 C339.103125 172.639375 339.20625 173.27875 339.3125 173.9375 C339.539375 174.618125 339.76625 175.29875 340 176 C340.99 176.33 341.98 176.66 343 177 C345.1875 178.9375 345.1875 178.9375 347 181 C347 181.66 347 182.32 347 183 C347.66 183.33 348.32 183.66 349 184 C348.67 184.66 348.34 185.32 348 186 C348.99 186 349.98 186 351 186 C351.33 187.32 351.66 188.64 352 190 C352.66 190 353.32 190 354 190 C354 191.32 354 192.64 354 194 C355.65 194.66 357.3 195.32 359 196 C359 197.32 359 198.64 359 200 C359.99 200 360.98 200 362 200 C365 203.33333333 365 203.33333333 365 206 C365.99 206.33 366.98 206.66 368 207 C368.70151152 208.3153341 369.36525925 209.65117592 370 211 C371.46385941 212.59115153 373.00618761 214.00547366 374.625 215.4375 C376 217 376 217 376.5 219.125 C376.665 219.74375 376.83 220.3625 377 221 C377.99 221.33 378.98 221.66 380 222 C383.15185822 225.46704404 385.70783157 228.89822492 388 233 C388.66 232.67 389.32 232.34 390 232 C390 233.32 390 234.64 390 236 C390.99 236.33 391.98 236.66 393 237 C395 239 395 239 395 242 C395.66 242 396.32 242 397 242 C397 242.66 397 243.32 397 244 C397.598125 244.2475 398.19625 244.495 398.8125 244.75 C401.34961242 246.19977853 402.30918596 247.63286034 404 250 C405.2375 251.2065625 405.2375 251.2065625 406.5 252.4375 C408.87582817 254.87272387 410.29389386 257.08540201 412 260 C413.57553423 262.1242027 415.21666861 264.03376282 417 266 C417.66 266 418.32 266 419 266 C419.33 267.65 419.66 269.3 420 271 C420.99 270.67 421.98 270.34 423 270 C423.66 271.65 424.32 273.3 425 275 C425.66 275 426.32 275 427 275 C428.34221206 276.32439509 429.67364124 277.65972839 431 279 C433.87214816 281.12603146 436.7984171 283.15858778 439.734375 285.1953125 C440.48203125 285.79085938 441.2296875 286.38640625 442 287 C442 287.66 442 288.32 442 289 C442.83337891 289.36738281 442.83337891 289.36738281 443.68359375 289.7421875 C446.45631183 291.2477781 448.65269792 293.08784773 451.0625 295.125 C456.54754372 299.66933702 462.17873763 303.89781764 468 308 C468.61568848 308.43634766 469.23137695 308.87269531 469.86572266 309.32226562 C479.46251279 316.14328607 479.46251279 316.14328607 489.625 322.0625 C496.56199117 325.68676635 502.74212549 330.32920575 509 335 C509.59731934 335.4448877 510.19463867 335.88977539 510.81005859 336.34814453 C520.96261888 343.94392733 520.96261888 343.94392733 524.6015625 347.6484375 C526.81353364 349.81717793 528.52777814 351.03813576 531.3125 352.3125 C532.00988281 352.63863281 532.70726562 352.96476562 533.42578125 353.30078125 C533.94527344 353.53152344 534.46476563 353.76226562 535 354 C534.52691406 353.22140625 534.05382812 352.4428125 533.56640625 351.640625 C532.90511719 350.52171875 532.24382813 349.4028125 531.5625 348.25 C531.19688965 347.63382812 530.8312793 347.01765625 530.45458984 346.3828125 C528.34222663 342.71070261 526.58095485 339.08041061 525.09765625 335.109375 C520.13180347 322.04339099 513.84999523 315.30309562 502.28515625 307.56005859 C499.7819382 305.85113089 497.35243819 304.06979834 494.9375 302.23828125 C494.18339844 301.66762939 493.42929687 301.09697754 492.65234375 300.5090332 C491.83443359 299.76206177 491.83443359 299.76206177 491 299 C491 298.34 491 297.68 491 297 C490.071875 296.6596875 490.071875 296.6596875 489.125 296.3125 C486.38589791 294.62070165 485.94975528 293.00755839 485 290 C485.66 289.34 486.32 288.68 487 288 C486.34 287.34 485.68 286.68 485 286 C485 285.01 485 284.02 485 283 C484.34 282.67 483.68 282.34 483 282 C483 281.34 483 280.68 483 280 C483.66 280 484.32 280 485 280 C485.33 279.01 485.66 278.02 486 277 C492.89203498 278.20337119 498.06080693 280.32135086 504 284 C495.67336289 274.5631446 481.95840945 271.56604275 470.21411133 269.16674805 C464.30047578 267.89229493 460.65498772 266.96643766 457 262 C456.1875 259.1875 456.1875 259.1875 456 257 C456.66 256.67 457.32 256.34 458 256 C457.24904053 255.80365967 456.49808105 255.60731934 455.72436523 255.4050293 C452.29391985 254.50475895 448.86571981 253.5962068 445.4375 252.6875 C444.25607422 252.37876953 443.07464844 252.07003906 441.85742188 251.75195312 C426.85128891 247.75872446 426.85128891 247.75872446 422.5 243.625 C420.6853037 240.44928147 421.12927312 239.42562287 422 236 C437.09045634 236.28326795 451.44916708 240.3367341 466 244 C466 243.34 466 242.68 466 242 C471.22745859 240.7936634 475.76528314 241.24387423 481 242 C480.319375 241.071875 479.63875 240.14375 478.9375 239.1875 C478.298125 238.135625 477.65875 237.08375 477 236 C477.33 235.01 477.66 234.02 478 233 C478.66 233 479.32 233 480 233 C480 232.01 480 231.02 480 230 C483.64876225 230.54907597 486.0191785 231.41292959 488.99609375 233.58203125 C489.71990234 234.10216797 490.44371094 234.62230469 491.18945312 235.15820312 C491.93130859 235.70412109 492.67316406 236.25003906 493.4375 236.8125 C494.91489477 237.88215962 496.39275099 238.95118221 497.87109375 240.01953125 C498.92079346 240.78257568 498.92079346 240.78257568 499.99169922 241.56103516 C502.61849306 243.44315562 505.29637489 245.23043237 508 247 C503.62805861 241.44645283 498.78156948 237.24545583 493.1953125 232.91796875 C492.47085938 232.28503906 491.74640625 231.65210938 491 231 C491 230.34 491 229.68 491 229 C490.43023438 228.73058594 489.86046875 228.46117187 489.2734375 228.18359375 C486.92100241 226.95887239 484.80766543 225.56739038 482.625 224.0625 C479.17522024 221.73033484 475.77739303 219.74341217 472 218 C472 217.34 472 216.68 472 216 C471.278125 215.73832031 470.55625 215.47664062 469.8125 215.20703125 C466.92007769 213.96570001 464.59038186 212.46838753 462 210.6875 C456.99637431 207.44317051 452.03915246 205.32897119 446.44921875 203.3046875 C435.29559617 199.08576344 424.60180301 193.43052458 414 188 C413.25621094 187.63132813 412.51242187 187.26265625 411.74609375 186.8828125 C406.85100479 184.32425628 403.01601669 180.96989495 401.1875 175.625 C401.0946875 174.820625 401.0946875 174.820625 401 174 C401.66 173.67 402.32 173.34 403 173 C403 172.34 403 171.68 403 171 C410.26763368 170.44627553 415.76954644 172.3855456 422.5 175 C423.51320313 175.3815625 424.52640625 175.763125 425.5703125 176.15625 C428.05155744 177.09256884 430.52759498 178.04063541 433 179 C433 178.34 433 177.68 433 177 C443.56722695 177.5763942 454.27305128 180.88327958 464 185 C463.236875 184.154375 462.47375 183.30875 461.6875 182.4375 C458.9508582 179.17996332 457.50585211 175.96276872 456 172 C457.375 170 457.375 170 459 168 C459.66 168 460.32 168 461 168 C462.04497358 169.16965793 463.036096 170.38768092 464 171.625 C470.43355224 179.13081095 478.52134519 182.32294406 487.62890625 185.6484375 C492.30661774 187.52385833 496.61771704 189.93690691 501.0234375 192.37109375 C507.80095072 196.08004784 514.69286233 198.6239686 522.04345703 200.9934082 C527.5261297 202.78135571 532.85257234 204.87849266 538.16455078 207.12060547 C540.964947 208.28342356 542.93070536 209 546 209 C546.99 209 547.98 209 549 209 C549.93090613 206.76349332 549.93090613 206.76349332 550 204 C548.02970348 201.30021631 548.02970348 201.30021631 545.25 198.875 C544.34765625 198.02679688 543.4453125 197.17859375 542.515625 196.3046875 C541.68546875 195.54414063 540.8553125 194.78359375 540 194 C538.171875 192.3203125 538.171875 192.3203125 537 191 C537 190.34 537 189.68 537 189 C536.34 189 535.68 189 535 189 C533.63823078 187.35648543 532.31037934 185.68477344 531 184 C530.113125 183.13375 529.22625 182.2675 528.3125 181.375 C526 179 526 179 525 176 C524.34 176 523.68 176 523 176 C518 170.52380952 518 170.52380952 518 168 C517.13375 167.62875 517.13375 167.62875 516.25 167.25 C513.67060021 165.81700012 511.93878408 164.21575324 510 162 C510 161.34 510 160.68 510 160 C509.236875 159.71125 508.47375 159.4225 507.6875 159.125 C505 158 505 158 502 156 C502 155.34 502 154.68 502 154 C501.47535156 153.7834375 500.95070313 153.566875 500.41015625 153.34375 C497.06509967 151.47875897 494.30820468 149.00741839 491.4375 146.5 C490.81834717 145.96536133 490.19919434 145.43072266 489.5612793 144.87988281 C485.74579147 141.57060628 482.0145104 138.18529496 478.3125 134.75 C472.61206009 129.53152148 466.49001177 125.12235086 460.15332031 120.71582031 C458.84828021 119.80652304 457.54497064 118.894737 456.2434082 117.98046875 C454.97297868 117.08864618 453.6981628 116.20303421 452.41870117 115.32421875 C450.90978395 114.26571511 449.44953554 113.13846733 448 112 C448 111.34 448 110.68 448 110 C447.1646875 109.690625 447.1646875 109.690625 446.3125 109.375 C443.07498698 107.44999226 441.31768859 104.96149098 439 102 C439.66 100.68 440.32 99.36 441 98 C446.28 100.31 451.56 102.62 457 105 C456.67 104.34 456.34 103.68 456 103 C461.65083438 103.36853268 465.62013542 105.1235249 470.5703125 107.84375 C472.9055316 109.09460956 472.9055316 109.09460956 475.28515625 109.3671875 C478.59659534 110.13906251 480.95475231 111.52774552 483.8671875 113.28125 C485.55751099 114.29131104 485.55751099 114.29131104 487.28198242 115.32177734 C488.47984322 116.04754091 489.67751262 116.77362047 490.875 117.5 C492.09381255 118.23315739 493.31297052 118.96574085 494.5324707 119.69775391 C496.93034482 121.13805478 499.32592214 122.58207528 501.72021484 124.02832031 C504.50670329 125.70344914 507.30338642 127.35677462 510.11328125 128.9921875 C511.17216553 129.6119043 511.17216553 129.6119043 512.25244141 130.24414062 C513.51092727 130.97960701 514.77219242 131.71034511 516.03662109 132.43554688 C517.3917353 133.2353928 518.70287778 134.10917905 520 135 C520 135.66 520 136.32 520 137 C520.886875 137.2475 521.77375 137.495 522.6875 137.75 C526.2102233 139.07932955 528.15367101 140.56028943 531 143 C532.43128948 144.09152544 533.8691547 145.17446677 535.3125 146.25 C536.35857422 147.03117187 536.35857422 147.03117187 537.42578125 147.828125 C537.94527344 148.21484375 538.46476563 148.6015625 539 149 C540.32 147.35 541.64 145.7 543 144 C546.32688551 145.31004208 549.60477775 146.69248027 552.86328125 148.1640625 C553.74951172 148.56367188 554.63574219 148.96328125 555.54882812 149.375 C556.46083984 149.7875 557.37285156 150.2 558.3125 150.625 C559.24384766 151.04523438 560.17519531 151.46546875 561.13476562 151.8984375 C563.42360455 152.93134943 565.71199959 153.96523234 568 155 C567.02804687 154.23300781 566.05609375 153.46601563 565.0546875 152.67578125 C562.65029437 150.77841532 562.07175231 150.23063243 561.125 147.1875 C561.08375 146.465625 561.0425 145.74375 561 145 C561.66 145 562.32 145 563 145 C563.33 143.02 563.66 141.04 564 139 C563.41089844 138.72800781 562.82179688 138.45601562 562.21484375 138.17578125 C553.80474371 133.71116024 547.03675726 125.1648132 540.41674805 118.42382812 C539.18967681 117.1906247 537.92780027 115.99223966 536.66015625 114.80078125 C534.3855094 112.33345843 534.21475713 110.29294272 534 107 C534.33 106.34 534.66 105.68 535 105 C537.5625 104.375 537.5625 104.375 540 104 C539.16855469 103.66162109 539.16855469 103.66162109 538.3203125 103.31640625 C535.31493845 101.61133714 533.27012997 99.42200049 530.875 96.9375 C527.75894235 93.53546517 527.75894235 93.53546517 524 91 C524 90.34 524 89.68 524 89 C523.34 89 522.68 89 522 89 C520.66796875 87.57421875 520.66796875 87.57421875 519.1875 85.6875 C516.72445433 82.68585221 514.40803572 80.90449055 511 79 C511 78.34 511 77.68 511 77 C509.68 76.34 508.36 75.68 507 75 C507 74.34 507 73.68 507 73 C506.34 73 505.68 73 505 73 C505 72.34 505 71.68 505 71 C504.12021484 70.62488281 504.12021484 70.62488281 503.22265625 70.2421875 C500.70584431 68.83560368 499.29133799 67.32306294 497.4375 65.125 C496.85871094 64.44695312 496.27992188 63.76890625 495.68359375 63.0703125 C495.12800781 62.38710937 494.57242188 61.70390625 494 61 C493.43410156 60.30519531 492.86820313 59.61039063 492.28515625 58.89453125 C490.63042368 56.45518384 491 54.9046564 491 52 C490.05273046 50.30280873 489.05771739 48.63064764 488 47 C488 46.34 488 45.68 488 45 C501.25472024 43.65358372 512.09067393 50.21852704 523 57 C523.83402344 57.49113281 524.66804687 57.98226562 525.52734375 58.48828125 C527.38940756 59.59766549 529.20187645 60.78972453 531 62 C531 62.66 531 63.32 531 64 C532.01513672 64.33837891 532.01513672 64.33837891 533.05078125 64.68359375 C536.808769 66.3610002 539.88854141 68.62533832 543.1875 71.0625 C547.43524864 74.28371363 547.43524864 74.28371363 552 77 C552 77.66 552 78.32 552 79 C552.99 79 553.98 79 555 79 C554.0409375 77.9171875 554.0409375 77.9171875 553.0625 76.8125 C551.00048655 74.00066348 550.27794266 72.42795945 550 69 C550.33 68.34 550.66 67.68 551 67 C555.966168 67.5145129 559.1788178 69.02043504 563.375 71.6875 C563.94154297 72.04690674 564.50808594 72.40631348 565.09179688 72.77661133 C571.72003743 77.02696113 577.45005202 81.42556696 583 87 C584.98017218 88.85523912 586.98921383 90.678044 589 92.5 C592.7656259 95.91200114 596.42130722 99.38959059 600 103 C601.32836082 104.30707409 602.65789385 105.61295743 603.98828125 106.91796875 C605.42978738 108.34104467 606.87119148 109.76422394 608.3125 111.1875 C609.05306641 111.91130859 609.79363281 112.63511719 610.55664062 113.38085938 C611.60561523 114.42016602 611.60561523 114.42016602 612.67578125 115.48046875 C613.31427002 116.10848389 613.95275879 116.73649902 614.6105957 117.38354492 C616 119 616 119 616 121 C616.66 121 617.32 121 618 121 C618 121.66 618 122.32 618 123 C618.66 123 619.32 123 620 123 C621.7265625 124.6796875 621.7265625 124.6796875 623.625 126.875 C624.25664063 127.59429687 624.88828125 128.31359375 625.5390625 129.0546875 C627 131 627 131 627 133 C627.66 133 628.32 133 629 133 C630.69140625 134.64453125 630.69140625 134.64453125 632.5625 136.8125 C633.18253906 137.52019531 633.80257812 138.22789062 634.44140625 138.95703125 C636 141 636 141 637 144 C637.66 144 638.32 144 639 144 C640.7265625 145.75 640.7265625 145.75 642.625 148 C643.25664063 148.7425 643.88828125 149.485 644.5390625 150.25 C645.02117188 150.8275 645.50328125 151.405 646 152 C645.71189453 151.42813965 645.42378906 150.8562793 645.12695312 150.26708984 C644.04874378 148.09805779 643.00580156 145.91551666 641.96875 143.7265625 C637.14816164 133.70013384 632.02989033 124.52570222 625.27636719 115.68847656 C622.99574622 112.67149595 620.81696763 109.58163901 618.625 106.5 C618.22023438 105.93619629 617.81546875 105.37239258 617.3984375 104.79150391 C616.25783575 103.19988921 615.1287448 101.60004526 614 100 C613.61166992 99.44957031 613.22333984 98.89914063 612.82324219 98.33203125 C610 94.23721466 610 94.23721466 610 92 C609.34 92 608.68 92 608 92 C606.625 90.0859375 606.625 90.0859375 605 87.375 C602.16343793 82.77740564 599.17108793 78.36782686 596 74 C581 53.23425978 581 53.23425978 581 47 C583 45 583 45 585.3125 44.625 C590.04154216 45.28486635 592.7557349 48.7557349 596 52 C596.66 52.45375 597.32 52.9075 598 53.375 C600 55 600 55 601.328125 57.35546875 C603.17035984 60.26947106 605.01405195 61.86004876 607.75 63.9375 C611.43944273 66.77305424 614.94794274 69.67839328 618.33203125 72.87109375 C620.0037494 74.17398391 620.0037494 74.17398391 622.3984375 74.3828125 C625.88315086 75.20951627 627.34580825 76.88081286 629.8125 79.4375 C630.60269531 80.24058594 631.39289062 81.04367188 632.20703125 81.87109375 C634 84 634 84 634 86 C634.58265625 86.10183594 635.1653125 86.20367187 635.765625 86.30859375 C638.37219275 87.11517153 639.73535414 88.24157009 641.75 90.0625 C642.36359375 90.61035156 642.9771875 91.15820312 643.609375 91.72265625 C644.06828125 92.14417969 644.5271875 92.56570312 645 93 C643.08578104 84.86189595 641.04666031 76.88396649 638.25 69 C636.42903163 63.68837535 635.24846272 59.58284833 636 54 C636.66 53.01 637.32 52.02 638 51 C642.56080448 52.52026816 643.89452841 56.12069829 646.25 60.125 C647 62 647 62 647 66 C647.66 66 648.32 66 649 66 C649.23074219 66.51272461 649.46148438 67.02544922 649.69921875 67.55371094 C654.88312918 78.992122 660.15024478 89.72104322 668.0625 99.56640625 C675.71227164 109.17488958 680.1329682 120.8321615 685 132 C685.6496875 131.01 685.6496875 131.01 686.3125 130 C686.869375 129.34 687.42625 128.68 688 128 C688.99 128 689.98 128 691 128 C692.25664978 130.90600261 693 132.79604584 693 136 C693.66 136 694.32 136 695 136 C695.50312161 138.51111587 696.0044445 141.02253498 696.5 143.53515625 C696.665 144.36917969 696.83 145.20320312 697 146.0625 C697.165 146.89910156 697.33 147.73570312 697.5 148.59765625 C697.94768083 150.74862276 698.44989345 152.87324877 699 155 C699.61875 155.0825 700.2375 155.165 700.875 155.25 C703 156 703 156 704 157.8125 C704.33 158.534375 704.66 159.25625 705 160 C706.91666921 162.25065102 706.91666921 162.25065102 709 164 C709.66 164 710.32 164 711 164 C711 164.99 711 165.98 711 167 C711.9590625 167.928125 711.9590625 167.928125 712.9375 168.875 C715.27990815 171.28839022 715.63515416 172.7163874 716 176 C716.99 176.33 717.98 176.66 719 177 C718.67 178.32 718.34 179.64 718 181 C718.66 181 719.32 181 720 181 C720 181.66 720 182.32 720 183 C720.99 183.33 721.98 183.66 723 184 C724.5625 186.8125 724.5625 186.8125 726 190 C727.20816968 192.55847696 727.97661367 193.97661367 730 196 C730 196.99 730 197.98 730 199 C730.66 199 731.32 199 732 199 C732.62620916 200.39529129 733.25090631 201.79126121 733.875 203.1875 C734.22304688 203.96480469 734.57109375 204.74210938 734.9296875 205.54296875 C736.00439329 208.01008533 737.01290853 210.49670045 738 213 C738.44721037 202.93776672 737.98085032 193.58322816 736 183.6875 C731.87221749 162.83607506 731.87221749 162.83607506 735.75 156.25 C738.0466132 153.9533868 738.92066507 153.51322249 742 153 C742.66 152.01 743.32 151.02 744 150 C744.66 150 745.32 150 746 150 C746.18175781 148.90300781 746.36351562 147.80601562 746.55078125 146.67578125 C746.80414941 145.22126033 747.05808573 143.7668383 747.3125 142.3125 C747.48942383 141.2306543 747.48942383 141.2306543 747.66992188 140.12695312 C748.43524034 135.82939559 749.43732926 132.63942316 752 129 C753.32 129.66 754.64 130.32 756 131 C762.26408461 118.62534696 762.26408461 118.62534696 768 106 C768.66 106 769.32 106 770 106 C771.485 101.05 771.485 101.05 773 96 C773.66 96 774.32 96 775 96 C775.33 95.01 775.66 94.02 776 93 C780.24888689 94.5174596 781.61497237 97.3140482 784 101 C785.6292274 102.70328319 787.28641357 104.38161281 789 106 C788.34 106.33 787.68 106.66 787 107 C786.37622565 109.24067913 786.37622565 109.24067913 786 111.9375 C785.38390204 115.68745056 784.72539873 119.40728527 783.9375 123.125 C783.30775529 126.3039513 782.71139781 129.47942817 782.25 132.6875 C782.15203125 133.35136719 782.0540625 134.01523438 781.953125 134.69921875 C781.8892389 137.15278424 781.8892389 137.15278424 782.98046875 139.94140625 C784.69750181 145.56397968 784.15842941 151.43470588 784.0625 157.25 C784.04301343 159.93365032 784.02655227 162.61710304 784.015625 165.30078125 C784.01230667 165.99998184 784.00898834 166.69918243 784.00556946 167.41957092 C783.97910443 175.00837724 784.08111309 182.5927328 784.26144409 190.17932129 C784.29491595 191.65976586 784.32351181 193.14033049 784.34671021 194.62097168 C784.51020068 204.77391899 785.72429565 214.07111378 788 224 C788.41727719 225.98657839 788.8327898 227.97352869 789.24609375 229.9609375 C789.64136119 231.76603505 790.03845429 233.57073393 790.4375 235.375 C790.62892578 236.28121094 790.82035156 237.18742188 791.01757812 238.12109375 C792.18934593 243.39215281 793.79186307 248.02299711 796.08764648 252.90429688 C797.45167438 256.03750947 798.11742416 259.22408155 798.8125 262.5625 C800.63807894 270.91851205 802.99443614 279.08317731 805.45043945 287.27368164 C807.2435325 293.28284347 808.87118298 299.30803771 810.35473633 305.40136719 C810.89999155 307.59724181 811.48834441 309.76685764 812.125 311.9375 C813.20145654 315.70509787 814 319.07737893 814 323 C814.99 323.33 815.98 323.66 817 324 C817.66015625 325.890625 817.66015625 325.890625 818.0625 328.25 C818.72661014 331.71874057 819.55956684 334.75902539 821 338 C821.33 338.845625 821.66 339.69125 822 340.5625 C822.94795966 342.99788414 822.94795966 342.99788414 824.1875 345.1875 C824.455625 345.785625 824.72375 346.38375 825 347 C824.67 347.66 824.34 348.32 824 349 C824.62501395 350.68272986 825.30177383 352.34630643 826 354 C827.20650539 357.97437068 828.25692986 361.91311423 829 366 C829.99 366.33 830.98 366.66 832 367 C831.95875 367.928125 831.9175 368.85625 831.875 369.8125 C831.72863661 373.15809719 831.72863661 373.15809719 834 376 C834 376.66 834 377.32 834 378 C834.495 378.7425 834.99 379.485 835.5 380.25 C837.26460692 383.48511268 837.15146567 385.36482394 837 389 C837.31595508 390.67004829 837.65179959 392.33637583 838 394 C838.1302565 395.41619303 838.25465956 396.83292992 838.375 398.25 C838.80153548 402.49402799 839.94995965 406.18177578 841.4765625 410.15234375 C842 412 842 412 841 414 C841.185625 415.258125 841.37125 416.51625 841.5625 417.8125 C842.09810919 421.52159365 841.57776216 423.56604707 840 427 C840.061875 428.2684375 840.061875 428.2684375 840.125 429.5625 C839.95334752 432.90972342 838.41084423 433.81517242 836 436 C836 436.66 836 437.32 836 438 C833.75 440.625 833.75 440.625 831 443 C829.68 443 828.36 443 827 443 C827.33 443.99 827.66 444.98 828 446 C827.01 446 826.02 446 825 446 C825 446.66 825 447.32 825 448 C824.34 448 823.68 448 823 448 C823.0309375 449.3303125 823.0309375 449.3303125 823.0625 450.6875 C821.79616013 454.63550078 820.95638526 454.95009254 817.4375 456.875 C815.96833545 457.6038523 814.49188303 458.31885745 813 459 C813 459.66 813 460.32 813 461 C814.26972656 460.98839844 815.53945313 460.97679687 816.84765625 460.96484375 C837.16050316 460.8300722 852.6135602 461.66529614 870.140625 472.640625 C872.66791327 474.21537909 875.21736762 475.67346119 877.859375 477.046875 C884.40854517 480.47576883 889.02647258 483.34283781 892.7109375 489.88671875 C895.7341254 494.84291468 900.46433225 498.32252493 906 500 C906 500.66 906 501.32 906 502 C906.56203125 502.2578125 907.1240625 502.515625 907.703125 502.78125 C910.26704579 504.14169777 912.45226365 505.72788962 914.75 507.5 C915.54921875 508.1084375 916.3484375 508.716875 917.171875 509.34375 C917.77515625 509.8903125 918.3784375 510.436875 919 511 C919 511.66 919 512.32 919 513 C919.556875 513.226875 920.11375 513.45375 920.6875 513.6875 C923.63827511 515.36226425 925.72375807 517.53156878 928 520 C928.62261719 520.66386719 929.24523437 521.32773437 929.88671875 522.01171875 C936.91169552 529.67897911 943.76700825 537.58760309 944.625 548.3125 C944.69976563 549.19550781 944.77453125 550.07851563 944.8515625 550.98828125 C944.90054688 551.65214844 944.94953125 552.31601562 945 553 C942.9794772 553.05469084 940.95851112 553.09310129 938.9375 553.125 C937.81214844 553.14820313 936.68679688 553.17140625 935.52734375 553.1953125 C931.71004233 552.98394476 928.63253403 552.17746968 925 551 C923.74960937 550.5978125 922.49921875 550.195625 921.2109375 549.78125 C919.9317702 549.35573108 918.65312501 548.92863948 917.375 548.5 C916.73304688 548.28730469 916.09109375 548.07460938 915.4296875 547.85546875 C912.74734944 546.95952387 910.11850335 546.05296029 907.53515625 544.8984375 C896.39926944 540.9519753 884.76671269 543.22033819 874 547 C872.1685722 547.50693524 870.33540048 548.0076422 868.5 548.5 C864.46153046 549.71616759 861.40309363 551.46746521 858 554 C857.175 554.433125 856.35 554.86625 855.5 555.3125 C852.56231219 557.29543927 850.68895628 559.58860744 848.46875 562.32421875 C847 564 847 564 844.5 565.75 C841.13190565 568.78128491 839.52589498 572.31343062 837.52734375 576.34375 C835.95907792 579.07116884 834.38858588 580.96225269 832 583 C831.34 583 830.68 583 830 583 C829.67 583.99 829.34 584.98 829 586 C828.34 586 827.68 586 827 586 C826.89365234 586.90298828 826.89365234 586.90298828 826.78515625 587.82421875 C825.70040158 590.83023043 824.2287213 591.33379192 821.4375 592.8125 C813.06612439 597.59954551 807.82680952 603.02022982 802.3359375 610.8984375 C798.13137985 616.48107759 793.21845427 621.42296993 788.41259766 626.48583984 C786.74835494 628.26973776 785.18148342 630.12176291 783.625 632 C780.10288165 636.08529971 776.17276471 639.74352464 772.25 643.4375 C771.58693848 644.06591797 770.92387695 644.69433594 770.24072266 645.34179688 C769.60956543 645.92896484 768.9784082 646.51613281 768.328125 647.12109375 C767.47589355 647.91664673 767.47589355 647.91664673 766.60644531 648.72827148 C765 650 765 650 762 651 C761.71125 651.598125 761.4225 652.19625 761.125 652.8125 C760 655 760 655 757.68359375 656.79296875 C754.83523738 659.13550347 753.02846729 661.47370937 750.9375 664.5 C748.50264335 668.01005077 746.01800915 670.98856604 743 674 C742.3574765 676.06874034 742.3574765 676.06874034 742 678 C741.34 678.66 740.68 679.32 740 680 C740.33 680.99 740.66 681.98 741 683 C739.5625 686.1875 739.5625 686.1875 738 689 C738.66 689.33 739.32 689.66 740 690 C739.54625 690.70125 739.0925 691.4025 738.625 692.125 C736.88300526 694.96730177 736.88300526 694.96730177 736 698.25 C735.67 699.1575 735.34 700.065 735 701 C734.01 701.33 733.02 701.66 732 702 C731.67 702.66 731.34 703.32 731 704 C731.66 704 732.32 704 733 704 C733 704.66 733 705.32 733 706 C731.34467377 707.01866229 729.67739862 708.01810813 728 709 C727.67 709.66 727.34 710.32 727 711 C727.66 711.33 728.32 711.66 729 712 C728.01 712.33 727.02 712.66 726 713 C724.98952268 715.01370017 724.98952268 715.01370017 724.25 717.5625 C716.37392521 740.37394624 704.40927376 762.20294783 688.09375 780.08984375 C680.52855881 788.86027373 680.63164894 801.8428017 680.46557617 812.92138672 C680.33913297 817.56804441 679.50648292 820.15075837 677 824 C675.89290211 827.69682908 675.68567899 829.30678448 677.29296875 832.8515625 C677.91816406 833.76679687 678.54335938 834.68203125 679.1875 835.625 C679.79980469 836.54539062 680.41210938 837.46578125 681.04296875 838.4140625 C682.87767581 840.83836604 684.8273511 842.88235486 687 845 C688.04644066 846.63790712 689.0398183 848.31008021 690 850 C690.82365603 851.40156551 691.65769233 852.79706376 692.5 854.1875 C692.9021875 854.86167969 693.304375 855.53585937 693.71875 856.23046875 C695.04946312 858.28475817 695.04946312 858.28475817 698 860 C698 860.66 698 861.32 698 862 C698.99 862.33 699.98 862.66 701 863 C702.7193245 865.24015257 704.28162974 867.44873253 705.8125 869.8125 C706.25319824 870.49175537 706.69389648 871.17101074 707.14794922 871.87084961 C708.4489022 873.9037972 709.72798148 875.94885099 711 878 C711.65613281 879.04671875 712.31226563 880.0934375 712.98828125 881.171875 C717.35140889 888.87763741 717.67680437 895.28001327 717 904 C716.91298828 905.67255859 716.91298828 905.67255859 716.82421875 907.37890625 C716.50875298 912.42017297 715.89574274 916.31640029 714 921 C713.78842623 922.60116941 713.60103403 924.20571328 713.4375 925.8125 C712.38030185 931.2356844 709.97154148 933.85486034 705.6953125 937.23046875 C700.40017024 940.70684475 694.75299172 944.19613092 688.234375 943.85546875 C685.75 943.3125 685.75 943.3125 682 942 C682 941.67 682 941.34 682 941 C683.24716797 940.72736328 683.24716797 940.72736328 684.51953125 940.44921875 C685.60621094 940.19785156 686.69289063 939.94648437 687.8125 939.6875 C689.43091797 939.32205078 689.43091797 939.32205078 691.08203125 938.94921875 C694.31079947 938.14288357 694.31079947 938.14288357 697 935 C693.7 934.34 690.4 933.68 687 933 C686.67 932.01 686.34 931.02 686 930 C686.62648438 929.96261719 687.25296875 929.92523437 687.8984375 929.88671875 C688.71570313 929.82097656 689.53296875 929.75523437 690.375 929.6875 C691.18710937 929.62949219 691.99921875 929.57148437 692.8359375 929.51171875 C695.37921338 929.17009472 695.37921338 929.17009472 697 926 C696.71395102 924.32457024 696.38218767 922.65614657 696 921 C696.33 920.34 696.66 919.68 697 919 C696.34 919.33 695.68 919.66 695 920 C693.00039988 920.039992 690.99952758 920.04346799 689 920 C688.34 918.68 687.68 917.36 687 916 C686.01 916 685.02 916 684 916 C683.9175 916.78375 683.835 917.5675 683.75 918.375 C682.62285828 923.82285164 681.00545625 929.99454375 677 934 C670.67741935 934.33870968 670.67741935 934.33870968 668 933 C668.20625 932.443125 668.4125 931.88625 668.625 931.3125 C669.11442853 928.2943574 668.1545231 926.82216758 667 924 C666.77808734 922.58831467 666.59224585 921.17061762 666.4375 919.75 C666.41762589 916.21082486 666.41762589 916.21082486 665 915 C662.03 918.96 662.03 918.96 659 923 C652.375 922.25 652.375 922.25 649 920 C649 919.34 649 918.68 649 918 C651.31 917.34 653.62 916.68 656 916 C655.814375 915.05125 655.62875 914.1025 655.4375 913.125 C655 910 655 910 656 908 C656.12560141 903.59243429 655.98747171 899.18831941 655.86791992 894.78149414 C655.81349477 892.60233013 655.78435295 890.42377485 655.75585938 888.24414062 C655.48995388 875.87913656 652.78909985 862.61502036 643.5625 853.625 C641.05388806 851.0552024 639.82284788 848.97269928 638.1875 845.8125 C633.99857766 837.84072433 628.35316142 831.43915555 622.25 824.875 C618.53664606 820.8089095 614 815.83451263 614 810 C613.38125 809.7525 612.7625 809.505 612.125 809.25 C609.6170261 807.77472123 609.07707051 806.65125048 608 804 C607.67 803.34 607.34 802.68 607 802 C606.360625 802.185625 605.72125 802.37125 605.0625 802.5625 C604.381875 802.706875 603.70125 802.85125 603 803 C602.67 802.67 602.34 802.34 602 802 C601.67 802.66 601.34 803.32 601 804 C599.68 803.67 598.36 803.34 597 803 C596.34 804.65 595.68 806.3 595 808 C593.02 807.67 591.04 807.34 589 807 C588.773125 807.61875 588.54625 808.2375 588.3125 808.875 C586.62070165 811.61410209 585.00755839 812.05024472 582 813 C582 813.66 582 814.32 582 815 C580.34151823 816.01351664 578.67334039 817.01120795 577 818 C576.34 818.66 575.68 819.32 575 820 C572.82023782 822.17976218 570.73912599 823.59532 568 825 C567.01 825 566.02 825 565 825 C565 825.66 565 826.32 565 827 C564.01 827.33 563.02 827.66 562 828 C561.525625 828.825 561.05125 829.65 560.5625 830.5 C560.046875 831.325 559.53125 832.15 559 833 C558.360625 833.144375 557.72125 833.28875 557.0625 833.4375 C554.61789145 833.86165035 554.61789145 833.86165035 553 837 C551 840 551 840 548.75 840.875 C547.88375 840.936875 547.88375 840.936875 547 841 C545.3125 839.0625 545.3125 839.0625 544 836 C544.90704933 829.63856069 548.41735368 824.19696126 552 819 C550.18641846 819.47505678 548.37415821 819.95516042 546.5625 820.4375 C545.55316406 820.70433594 544.54382813 820.97117187 543.50390625 821.24609375 C541.08247999 821.75978077 541.08247999 821.75978077 540 823 C538.33382885 823.04063832 536.66611905 823.042721 535 823 C534.34 821.35 533.68 819.7 533 818 C527.5645967 818.42223232 524.76095297 819.45882309 520.6875 823.0625 C519.75164063 823.87074219 518.81578125 824.67898438 517.8515625 825.51171875 C516.91054688 826.33285156 515.96953125 827.15398438 515 828 C513.19557192 829.46830912 511.38351822 830.92731737 509.5625 832.375 C508.78003906 833.00148438 507.99757813 833.62796875 507.19140625 834.2734375 C506.46824219 834.84320312 505.74507812 835.41296875 505 836 C504.28714844 836.56976562 503.57429687 837.13953125 502.83984375 837.7265625 C501 839 501 839 499 839 C499 839.66 499 840.32 499 841 C496.86636168 842.69312591 494.73582956 844.26492302 492.5 845.8125 C491.8601416 846.26173828 491.2202832 846.71097656 490.56103516 847.17382812 C479.92017216 854.60006728 479.92017216 854.60006728 474.9140625 857 C472.83668643 857.96378396 472.83668643 857.96378396 471 860 C471 859.34 471 858.68 471 858 C470.34 858 469.68 858 469 858 C469.33 855.36 469.66 852.72 470 850 C470.66 850 471.32 850 472 850 C472.309375 849.21625 472.61875 848.4325 472.9375 847.625 C474 845 474 845 475 843 C469.65478385 844.50334204 465.86491984 848.17120091 462 852 C461.67 852.66 461.34 853.32 461 854 C460.34 854 459.68 854 459 854 C458.74863281 854.54785156 458.49726563 855.09570312 458.23828125 855.66015625 C454.64076339 862.45798969 449.63880287 868.79495119 444 874 C442.82926597 875.16258507 441.66290932 876.32958804 440.5 877.5 C437.66666667 880.33333333 434.83333333 883.16666667 432 886 C431.13375 886.9075 430.2675 887.815 429.375 888.75 C427 891 427 891 424 892 C424 892.66 424 893.32 424 894 C423.01 894 422.02 894 421 894 C420.67 894.99 420.34 895.98 420 897 C419.71125 896.360625 419.4225 895.72125 419.125 895.0625 C418.17176549 892.84793921 418.17176549 892.84793921 416 892 C416.36351562 891.40574219 416.72703125 890.81148437 417.1015625 890.19921875 C420.4227225 884.72356266 423.57921785 879.18696835 426.60546875 873.54296875 C428.00710862 870.98703723 429.4846191 868.48987363 431 866 C429.68 866.33 428.36 866.66 427 867 C427 867.66 427 868.32 427 869 C421.52380952 874 421.52380952 874 419 874 C418.67 874.99 418.34 875.98 418 877 C417.34 877 416.68 877 416 877 C416 877.66 416 878.32 416 879 C413.00893216 881.36503039 410.97138418 882.91553181 407.125 883.25 C406.42375 883.1675 405.7225 883.085 405 883 C404.54039013 877.25487658 405.52514874 874.56074228 409 870 C409 869.67 409 869.34 409 869 C407.58074219 869.54527344 407.58074219 869.54527344 406.1328125 870.1015625 C404.79718642 870.61019351 403.46122049 871.11793261 402.125 871.625 C401.41698242 871.89425293 400.70896484 872.16350586 399.97949219 872.44091797 C396.03688918 873.92176034 392.08421389 875.31768171 388.0703125 876.59375 C387.26577637 876.85075684 386.46124023 877.10776367 385.63232422 877.37255859 C384.07217644 877.86532099 382.50874471 878.34783134 380.94189453 878.81884766 C376.56881103 880.20328132 374.16332094 881.55582347 371 885 C370.01 885 369.02 885 368 885 C368 885.66 368 886.32 368 887 C366.56298828 888.32861328 366.56298828 888.32861328 364.5703125 889.8203125 C363.85746094 890.35527344 363.14460938 890.89023437 362.41015625 891.44140625 C361.65605469 891.99699219 360.90195312 892.55257812 360.125 893.125 C359.37863281 893.68832031 358.63226563 894.25164063 357.86328125 894.83203125 C352.26225787 899 352.26225787 899 350 899 C350 899.66 350 900.32 350 901 C349.01 901 348.02 901 347 901 C347 901.66 347 902.32 347 903 C341.66666667 905.66666667 336.33333333 908.33333333 331 911 C329.75 908.3125 329.75 908.3125 329 905 C330.75 902.125 330.75 902.125 333 900 C333.66 900 334.32 900 335 900 C335 899.34 335 898.68 335 898 C335.66 898 336.32 898 337 898 C337.33 896.68 337.66 895.36 338 894 C336.3603125 894.8971875 336.3603125 894.8971875 334.6875 895.8125 C329.67249025 898.3425139 324.43797148 899.68049221 319 901 C318.67 899.35 318.34 897.7 318 896 C318.49371094 895.67386719 318.98742187 895.34773437 319.49609375 895.01171875 C320.45708984 894.35623047 320.45708984 894.35623047 321.4375 893.6875 C322.07558594 893.25824219 322.71367187 892.82898438 323.37109375 892.38671875 C325.2885684 890.9965948 325.2885684 890.9965948 326 888 C325.31292969 888.2165625 324.62585938 888.433125 323.91796875 888.65625 C322.56638672 889.07390625 322.56638672 889.07390625 321.1875 889.5 C319.84751953 889.91765625 319.84751953 889.91765625 318.48046875 890.34375 C316 891 316 891 313 891 C312.34 889.35 311.68 887.7 311 886 C311.66 886 312.32 886 313 886 C313.33 884.68 313.66 883.36 314 882 C315.175625 881.87625 315.175625 881.87625 316.375 881.75 C317.24125 881.5025 318.1075 881.255 319 881 C319.29366455 880.401875 319.5873291 879.80375 319.88989258 879.1875 C323.90355094 871.27846571 335.60168306 865.74714035 342.8125 861 C343.86405273 860.30156982 344.91560547 859.60313965 345.99902344 858.88354492 C352.4329279 854.62856161 358.91479727 850.50778681 365.609375 846.67578125 C368.31308205 844.78053562 369.97459788 842.58458923 372 840 C372.66 840 373.32 840 374 840 C374 839.34 374 838.68 374 838 C374.66 838 375.32 838 376 838 C376.33 837.01 376.66 836.02 377 835 C377.66 835 378.32 835 379 835 C379.33 834.01 379.66 833.02 380 832 C373.07310583 833.60943782 366.89407131 836.272183 361 840.25 C352.0170019 846.18337233 341.76327449 850.48535107 331.5625 853.875 C325.37613708 856.0042598 319.72154909 859.18356581 313.98657227 862.29638672 C298.76555334 870.53865509 298.76555334 870.53865509 290 871 C289.34 870.67 288.68 870.34 288 870 C288 869.34 288 868.68 288 868 C286.68 868.33 285.36 868.66 284 869 C286.44209561 862.08072912 290.11653151 857.25612614 296 853 C296.99 853 297.98 853 299 853 C299 852.34 299 851.68 299 851 C299.83660156 850.608125 300.67320312 850.21625 301.53515625 849.8125 C314.31944273 843.24338712 323.22866871 833.23690451 332 822 C331.03320312 822.40992188 330.06640625 822.81984375 329.0703125 823.2421875 C317.92447541 827.89358852 308.48650489 830.28308317 296.35571289 830.01513672 C292.55407429 829.8509585 292.55407429 829.8509585 289 831 C289 830.34 289 829.68 289 829 C287.329375 829.061875 287.329375 829.061875 285.625 829.125 C281.3010025 829.14044285 277.31046202 828.3757067 273.1015625 827.4375 C271.03143286 826.93206369 271.03143286 826.93206369 269 827 C269 827.66 269 828.32 269 829 C265.04 828.34 261.08 827.68 257 827 C256.67 827.66 256.34 828.32 256 829 C253.69 829 251.38 829 249 829 C248.67 829.66 248.34 830.32 248 831 C247.34 830.67 246.68 830.34 246 830 C246.61016949 824.50847458 246.61016949 824.50847458 248.4375 822.125 C250 821 250 821 252 821 C252 820.34 252 819.68 252 819 C252.66 819 253.32 819 254 819 C254.26248535 818.39712158 254.5249707 817.79424316 254.79541016 817.1730957 C256.07591059 814.86305631 257.17705339 813.80145419 259.2734375 812.23046875 C260.25449463 811.49111084 260.25449463 811.49111084 261.25537109 810.73681641 C261.95484863 810.22554199 262.65432617 809.71426758 263.375 809.1875 C264.09381348 808.65560059 264.81262695 808.12370117 265.55322266 807.57568359 C271.46462871 803.26202587 277.59867796 799.54212556 284 796 C285.7753252 794.94502258 287.54637066 793.88280094 289.3125 792.8125 C292.53368752 790.87264064 295.77137579 788.97134557 299.04296875 787.1171875 C301.6008017 785.65702737 304.14380407 784.17214743 306.6875 782.6875 C307.70972656 782.09195313 308.73195313 781.49640625 309.78515625 780.8828125 C311.98535265 779.59424061 314.18044757 778.29692926 316.37109375 776.9921875 C317.44488281 776.35539063 318.51867187 775.71859375 319.625 775.0625 C320.60726563 774.47597656 321.58953125 773.88945313 322.6015625 773.28515625 C325 772 325 772 327 772 C327 771.34 327 770.68 327 770 C315.95066902 767.6261203 306.42221778 770.53956069 295.76953125 773.45703125 C285.38726944 776.26147466 276.17370392 777.26957585 265.375 777.125 C264.08464844 777.11597656 262.79429687 777.10695313 261.46484375 777.09765625 C258.30969751 777.0742848 255.15495074 777.04152091 252 777 C251.34 775.02 250.68 773.04 250 771 C250.66 771 251.32 771 252 771 C252 770.01 252 769.02 252 768 C253.11375 767.71125 254.2275 767.4225 255.375 767.125 C259.00291092 766.30758671 259.00291092 766.30758671 261 764 C260.175 763.236875 259.35 762.47375 258.5 761.6875 C256 759 256 759 256 756 C255.34 755.67 254.68 755.34 254 755 C254.99 755 255.98 755 257 755 C257 754.01 257 753.02 257 752 C260.92427243 749.71844626 264.3021558 749.68449937 268.7578125 749.5390625 C271.73236273 749.04449873 273.86174895 748.29563081 276.61328125 747.12890625 C282.29796545 744.75159728 288.03534451 743.51022866 294.0625 742.3125 C296.11653199 741.89509634 298.16995764 741.4746936 300.22265625 741.05078125 C301.11734619 740.87200439 302.01203613 740.69322754 302.93383789 740.5090332 C304.97807863 740.19439724 304.97807863 740.19439724 306 739 C305.44004837 738.99413376 304.88009674 738.98826752 304.30317688 738.98222351 C298.41298574 738.91770421 292.52331183 738.8331435 286.63354492 738.73754883 C284.4428596 738.70453475 282.25209403 738.67643171 280.0612793 738.65356445 C249.61909001 738.32727417 249.61909001 738.32727417 241 731 C240.2575 730.62875 239.515 730.2575 238.75 729.875 C237 729 237 729 236 727 C236.5 724.9375 236.5 724.9375 238 723 C241.125 722.3125 241.125 722.3125 245 722 C246.48000021 721.81919718 247.95921176 721.63180432 249.4375 721.4375 C250.613125 721.293125 251.78875 721.14875 253 721 C252.484375 720.278125 251.96875 719.55625 251.4375 718.8125 C249.75355623 715.51782741 250.12018607 714.46681647 251 711 C260.04306083 710.62378638 267.65876235 711.27277091 276.4296875 713.44140625 C283.04872001 714.47698792 289.54081503 712.76187665 296.00390625 711.29296875 C297.54814093 710.95116713 299.09258364 710.61030434 300.63720703 710.27026367 C301.43950745 710.09320892 302.24180786 709.91615417 303.06842041 709.73373413 C332.81323486 703.21925362 362.6815049 700.28421611 393 698 C392.24082275 697.83918945 391.48164551 697.67837891 390.69946289 697.51269531 C383.28892859 695.94054292 375.88245413 694.35048288 368.47851562 692.74755859 C365.63918275 692.13736507 362.79755933 691.54275545 359.953125 690.95703125 C352.64672733 689.408628 345.75009891 687.34785292 338.8125 684.5625 C338.11680908 684.28607666 337.42111816 684.00965332 336.7043457 683.72485352 C332.10019538 681.77480085 328.62290291 679.46514042 325 676 C325 675.34 325 674.68 325 674 C324.34 674 323.68 674 323 674 C318.23255814 669.69767442 318.23255814 669.69767442 317 666 C314.99983534 664.79117904 314.99983534 664.79117904 313 664 C313 663.34 313 662.68 313 662 C313.66 662 314.32 662 315 662 C315 661.34 315 660.68 315 660 C328.9098683 659.23255899 340.9728715 661.41487047 354.375 665 C357.13605641 665.71872363 359.89858171 666.43132846 362.66226196 667.13989258 C364.36251363 667.57785697 366.06102202 668.02266445 367.75741577 668.4753418 C368.51986603 668.67554932 369.28231628 668.87575684 370.06787109 669.08203125 C370.73305756 669.25968018 371.39824402 669.4373291 372.08358765 669.62036133 C374.32834957 670.12954828 374.32834957 670.12954828 378 670 C378.33 669.34 378.66 668.68 379 668 C379.66 668 380.32 668 381 668 C381.33 667.01 381.66 666.02 382 665 C380.741875 665.165 379.48375 665.33 378.1875 665.5 C375.73543415 665.82158241 373.48349306 666 371 666 C371 664.02 371 662.04 371 660 C372.11375 659.65195313 372.11375 659.65195313 373.25 659.296875 C376.51782146 657.75580011 377.84060744 656.12338527 380 653.25 C380.68320312 652.36054687 381.36640625 651.47109375 382.0703125 650.5546875 C383.02550781 649.29011719 383.02550781 649.29011719 384 648 C385.61590819 645.92936388 387.2469337 643.9593094 389 642 C389.66 642 390.32 642 391 642 C391 641.34 391 640.68 391 640 C389.35 639.67 387.7 639.34 386 639 C385.67 637.68 385.34 636.36 385 635 C383.9171875 635.7425 383.9171875 635.7425 382.8125 636.5 C379.85151341 638.07919285 378.28746971 638.28178312 375 638 C374 635 374 635 374.77734375 633.17578125 C375.8515625 631.45052083 376.92578125 629.72526042 378 628 C377.484375 628.350625 376.96875 628.70125 376.4375 629.0625 C373.05993333 630.3615641 370.49531943 629.67217681 367 629 C367 626 367 626 368.375 624.3125 C370 623 370 623 372 623 C372.33 621.68 372.66 620.36 373 619 C372.34 619 371.68 619 371 619 C372.05201133 612.9885067 375.53661391 610.51540422 380.1015625 606.9296875 C382.46754074 604.975927 382.46754074 604.975927 382 601 C381.85498792 599.58095324 381.68852321 598.16392405 381.5 596.75 C381.335 595.5125 381.17 594.275 381 593 C380.28714844 593.26554688 379.57429688 593.53109375 378.83984375 593.8046875 C376.84996277 594.53850633 374.85623405 595.2619505 372.859375 595.9765625 C370.79518708 596.71538386 368.7387369 597.47594834 366.6875 598.25 C359.52421003 599.70694033 350.6170442 600.61778431 344 597 C342.26107303 594.79769134 341.2660588 592.53211761 340 590 C340.99 589.67 341.98 589.34 343 589 C343 588.34 343 587.68 343 587 C343.74048584 586.80889648 344.48097168 586.61779297 345.24389648 586.42089844 C348.64389306 585.53858221 352.04065932 584.64438578 355.4375 583.75 C356.60216797 583.44964844 357.76683594 583.14929688 358.96679688 582.83984375 C365.0116872 581.2392249 370.68784656 579.49483689 376.31274414 576.74316406 C378 576 378 576 380 576 C380 575.34 380 574.68 380 574 C380.99 573.67 381.98 573.34 383 573 C382.67 572.34 382.34 571.68 382 571 C379.0073471 572.08823742 376.52413343 573.29858294 373.8125 575 C370.20605277 577.11869038 366.7695732 577.73632976 362.68359375 578.4453125 C355.17492087 579.99732349 348.5393708 583.10420463 342 587 C341.34 587 340.68 587 340 587 C340 587.66 340 588.32 340 589 C339.28714844 589.37511719 338.57429688 589.75023437 337.83984375 590.13671875 C332.90172516 592.77525587 328.21176876 595.44500673 323.7265625 598.79296875 C321.09825417 600.63040602 318.28476331 602.08845447 315.4609375 603.6015625 C312.66892015 605.18813744 310.04099863 606.96049407 307.375 608.75 C303.07615968 611.51956099 300.12007409 613 295 613 C294.01 612.67 293.02 612.34 292 612 C291.16796875 610.16796875 291.16796875 610.16796875 291 608 C294.9708955 599.60901268 304.15175751 592.51470805 312 588 C313.34631825 587.01755155 314.68441297 586.02323436 316 585 C314.68 585 313.36 585 312 585 C310.66905541 582.33811081 309.86010706 580.71944939 310.4375 577.75 C312.86011467 575.03667157 315.50405071 575.25895921 319 575 C319 574.34 319 573.68 319 573 C320.94987565 571.42362994 322.89708766 569.94982761 324.9375 568.5 C329.06353603 565.80306619 329.06353603 565.80306619 332 562 C332.763125 561.54625 333.52625 561.0925 334.3125 560.625 C336.98394547 559.00970739 338.88209504 557.27478681 341 555 C340.35933594 555.33773437 339.71867187 555.67546875 339.05859375 556.0234375 C329.49190137 560.95648603 321.73839276 563.17654477 311.0625 561.3125 C308 560 308 560 306.375 557.625 C306 555 306 555 307.19921875 552.91015625 C309.32040354 550.66013594 310.44293913 550.38780972 313.4375 549.8125 C319.43507592 548.24485167 323.59810162 544.8651136 328.3359375 541.05859375 C331 539 331 539 335 537 C331.04 536.34 327.08 535.68 323 535 C322.67 534.01 322.34 533.02 322 532 C319.98491642 531.26676204 319.98491642 531.26676204 318 531 C318 530.67 318 530.34 318 530 C317.21625 529.938125 316.4325 529.87625 315.625 529.8125 C314.75875 529.544375 313.8925 529.27625 313 529 C311.6875 526.4375 311.6875 526.4375 311 524 C311.66 524 312.32 524 313 524 C313.37125 523.13375 313.37125 523.13375 313.75 522.25 C315.16599656 519.70120619 316.94723215 518.05276785 319 516 C319.33 515.01 319.66 514.02 320 513 C319.10804932 513.176521 318.21609863 513.35304199 317.29711914 513.53491211 C313.94856858 514.19575592 310.59939271 514.85323853 307.24975586 515.50854492 C305.80743929 515.79140576 304.36537499 516.07555637 302.92358398 516.36108398 C291.85503099 518.55177506 281.18058471 520.18116843 269.875 520.25 C269.02035156 520.270625 268.16570312 520.29125 267.28515625 520.3125 C261.73765645 520.34658602 257.94155664 519.54443296 253 517 C253 516.34 253 515.68 253 515 C252.34 515 251.68 515 251 515 C250.67 514.34 250.34 513.68 250 513 C249.05125 513.185625 248.1025 513.37125 247.125 513.5625 C244 514 244 514 242 513 C242 511.02 242 509.04 242 507 C243.11375 506.79375 244.2275 506.5875 245.375 506.375 C248.88514612 505.50512086 251.52190585 504.19557281 254.5625 502.25 C268.57412502 493.46881467 286.17745208 488.60110869 301.9375 483.875 C312.89884198 480.55168867 322.88795748 476.20459743 332.8828125 470.671875 C336 469 336 469 339 468 C333.16535279 464.06574554 327.18254099 461.17829482 320.6875 458.5 C318.81070768 457.71471228 316.93439929 456.92826691 315.05859375 456.140625 C313.73190674 455.5847168 313.73190674 455.5847168 312.37841797 455.01757812 C309.62848705 453.84105256 306.93894391 452.55925466 304.25 451.25 C297.12526417 447.98403004 289.54921793 446.02414478 282 444 C281.19288574 443.78311523 280.38577148 443.56623047 279.55419922 443.34277344 C269.89756511 440.77699196 260.26103482 438.5005958 250.37890625 436.98779297 C246.92194668 436.44101149 244.02013111 435.81053778 241 434 C241 433.34 241 432.68 241 432 C240.34 432 239.68 432 239 432 C238 429 238 429 239 426 C241.0625 424.8125 241.0625 424.8125 243 424 C241.35 424.33 239.7 424.66 238 425 C238 424.34 238 423.68 238 423 C233.78657393 422.92490466 229.57351964 422.87096054 225.35961914 422.83520508 C223.93116455 422.8202735 222.50275452 422.79992062 221.07446289 422.77368164 C212.28831994 422.61651107 204.38083086 423.03548785 196 426 C194.95912231 426.35276001 194.95912231 426.35276001 193.8972168 426.71264648 C192.00208132 427.37735996 190.1255331 428.09433701 188.25 428.8125 C187.25081543 429.19498901 187.25081543 429.19498901 186.23144531 429.58520508 C184.84849753 430.11674513 183.46665475 430.65116914 182.0859375 431.18847656 C180.68626077 431.73301372 179.28519287 432.27398742 177.8828125 432.81152344 C175.83566994 433.59632484 173.79232888 434.39026629 171.75 435.1875 C170.54859375 435.65542969 169.3471875 436.12335938 168.109375 436.60546875 C165.37169746 437.83329649 163.28585312 439.08192028 161 441 C160.3125 439.1875 160.3125 439.1875 160 437 C160.97627096 435.97682112 161.98144339 434.98109246 163 434 C163.98655111 432.56060575 164.94335428 431.10052538 165.875 429.625 C168.28977863 425.96140203 170.68733675 422.91829858 174 420 C174.49242187 419.53078125 174.98484375 419.0615625 175.4921875 418.578125 C184.68817352 410.6491415 197.9915097 408.11733139 209.53222656 405.39575195 C214.71718325 404.14749762 219.22881479 402.32225829 224 400 C226.01421586 399.10987257 228.03555857 398.23575595 230.0625 397.375 C231.00222656 396.97023438 231.94195312 396.56546875 232.91015625 396.1484375 C236.56944263 394.78834876 240.20017674 393.89167004 244 393 C226.10865906 390.23623434 211.57685884 391.52799299 195.0690918 399.09472656 C192.37170056 400.27489491 189.66510971 401.09261064 186.8125 401.8125 C185.84957031 402.06644531 184.88664063 402.32039063 183.89453125 402.58203125 C180.68060769 403.04612008 178.15753107 402.6876401 175 402 C174.1875 399.875 174.1875 399.875 174 397 C175.47679087 394.81213685 177.23893206 392.97743554 179 391 C145.18202489 390.18958375 145.18202489 390.18958375 112 396 C110.34585559 396.40305164 108.69092819 396.80290621 107.03515625 397.19921875 C99.61891784 399.067283 93.48067643 401.21072787 87.76171875 406.546875 C85.83522492 408.13591204 84.43838871 408.5909105 82 409 C81.67 408.34 81.34 407.68 81 407 C81.33 406.34 81.66 405.68 82 405 C80.77023438 405.63228516 80.77023438 405.63228516 79.515625 406.27734375 C78.43796875 406.82519531 77.3603125 407.37304688 76.25 407.9375 C75.18265625 408.48277344 74.1153125 409.02804687 73.015625 409.58984375 C70.58645978 410.72576168 68.58133341 411.42208954 66 412 C64.2365625 412.804375 64.2365625 412.804375 62.4375 413.625 C59 415 59 415 56 414 C56.33 412.35 56.66 410.7 57 409 C57.66 409 58.32 409 59 409 C59.226875 408.443125 59.45375 407.88625 59.6875 407.3125 C61.36186604 404.36242651 63.52931389 402.27327052 66 400 C66.68707031 399.36578125 67.37414062 398.7315625 68.08203125 398.078125 C74.88543723 391.91217614 81.3985591 386.91008298 89.875 383.3125 C90.57173828 383.01142334 91.26847656 382.71034668 91.98632812 382.40014648 C96.92859767 380.31807177 101.68866407 378.85360756 107 378 C103.64211262 375.91914512 101.69822235 375.90541093 97.859375 376.64453125 C96.87066406 376.82693359 95.88195312 377.00933594 94.86328125 377.19726562 C93.83589844 377.40029297 92.80851562 377.60332031 91.75 377.8125 C89.72427904 378.19570963 87.69824184 378.57725173 85.671875 378.95703125 C84.22071289 379.23196411 84.22071289 379.23196411 82.74023438 379.51245117 C79.16999816 380.14767584 75.60188774 380.58439757 72 381 C70.32943851 381.31323028 68.66041075 381.63678515 67 382 C67.33 380.35 67.66 378.7 68 377 C68.99 376.67 69.98 376.34 71 376 C68.21855524 373.7182133 68.21855524 373.7182133 65.25 374.125 C58.74501674 375.87634165 53.55332103 379.90594064 48.375 384.0625 C47.77816406 384.5356665 47.18132812 385.00883301 46.56640625 385.49633789 C41.76830265 389.32408817 37.07020637 393.26727516 32.43896484 397.29516602 C23.62509878 404.89515492 23.62509878 404.89515492 18.125 405.25 C17.09375 405.1675 16.0625 405.085 15 405 C16.77960638 396.59419963 22.23104612 390.10145842 28 384 C24.53395328 385.12646518 21.13489176 386.34095547 17.75 387.6875 C16.5125 388.120625 15.275 388.55375 14 389 C13.34 388.67 12.68 388.34 12 388 C11.67 388.66 11.34 389.32 11 390 C8.9375 390.625 8.9375 390.625 7 391 C6.505 389.515 6.505 389.515 6 388 C6.67095703 387.45472656 6.67095703 387.45472656 7.35546875 386.8984375 C10.3567608 384.40269357 12.99088434 382.01093879 15.5 379 C20.64978885 372.82025338 26.68047903 368.36906668 34 365 C34.66 365 35.32 365 36 365 C36 364.34 36 363.68 36 363 C36.99 363 37.98 363 39 363 C38.62875 362.071875 38.2575 361.14375 37.875 360.1875 C37.58625 359.135625 37.2975 358.08375 37 357 C37.66 356.01 38.32 355.02 39 354 C39.66 354 40.32 354 41 354 C41 353.34 41 352.68 41 352 C40.443125 352.309375 39.88625 352.61875 39.3125 352.9375 C36.87459567 354.05761821 34.63775814 354.56037364 32 355 C32 355.66 32 356.32 32 357 C31.01257813 357.42152344 30.02515625 357.84304688 29.0078125 358.27734375 C27.71352802 358.83069726 26.41925794 359.38408442 25.125 359.9375 C24.47402344 360.21529297 23.82304688 360.49308594 23.15234375 360.77929688 C18.26210635 362.46236811 18.26210635 362.46236811 15 366 C14.34 366 13.68 366 13 366 C13.38243081 360.51849175 15.00724325 358.64556051 19 355 C20.87869434 352.91520417 22.71136502 350.79468219 24.546875 348.671875 C25.34003242 347.75931754 26.14505561 346.85494439 27 346 C27.10700699 344.66835751 27.18513531 343.33435932 27.25 342 C27.76731418 336.53751299 30.08031616 332.55729249 33 328 C33.66 328 34.32 328 35 328 C35 327.34 35 326.68 35 326 C53.36729122 306.05385853 90.16389269 289.16778132 116 282 C113.18024053 279.69292407 110.31675815 277.46104523 107.375 275.3125 C106.80523437 274.89613281 106.23546875 274.47976563 105.6484375 274.05078125 C103.86465921 272.81973143 103.86465921 272.81973143 101 272 C101 271.34 101 270.68 101 270 C99.68 269.67 98.36 269.34 97 269 C97 268.34 97 267.68 97 267 C96.30777344 266.73832031 95.61554688 266.47664063 94.90234375 266.20703125 C87.10245491 262.9632013 79.02103151 259.02103151 73 253 C73 252.34 73 251.68 73 251 C72.01 251 71.02 251 70 251 C68.421875 249.53125 68.421875 249.53125 66.75 247.5 C64.33281479 244.59733362 61.87376528 241.77608107 59.3125 239 C54.77466488 233.79933503 51.32785585 228.04890078 51 221 C51.66 220.01 52.32 219.02 53 218 C53.78375 218.474375 54.5675 218.94875 55.375 219.4375 C56.88948678 220.33898023 58.4235897 221.21179485 60 222 C60 222.66 60 223.32 60 224 C60.515625 224.0825 61.03125 224.165 61.5625 224.25 C65.04455732 225.32140225 67.87200885 227.13523605 71 229 C71 229.66 71 230.32 71 231 C71.57878906 231.26941406 72.15757813 231.53882813 72.75390625 231.81640625 C75.02440285 233.01285924 76.9143634 234.36305904 78.9375 235.9375 C81.26031344 237.72194173 83.46103817 239.26893893 86 240.75 C86.66 241.1625 87.32 241.575 88 242 C88 242.66 88 243.32 88 244 C88.58765137 244.27215332 89.17530273 244.54430664 89.78076172 244.82470703 C91.95112318 245.97411518 93.62096317 247.24306802 95.5078125 248.8046875 C100.53110105 252.63317257 106.03542497 254.8139572 111.875 257.125 C112.89980469 257.54136719 113.92460937 257.95773437 114.98046875 258.38671875 C117.00443768 259.20710768 119.03140746 260.02013795 121.06152344 260.82519531 C123.02014215 261.60825224 124.97148861 262.40975014 126.91503906 263.22949219 C128.26033691 263.79265137 128.26033691 263.79265137 129.6328125 264.3671875 C130.4283252 264.7060498 131.22383789 265.04491211 132.04345703 265.39404297 C134.05066347 266.26292068 134.05066347 266.26292068 136 265 C135.03320312 264.49210937 134.06640625 263.98421875 133.0703125 263.4609375 C125.57923506 259.50750088 118.21982843 255.43451391 111 251 C109.4170479 250.06185644 107.83370337 249.12437477 106.25 248.1875 C102.43416906 245.90502444 98.71481458 243.50549382 95 241.0625 C87.03951731 235.85981736 78.76599127 231.19184153 70.50195312 226.49243164 C63.53550191 222.51829221 56.73473039 218.35383856 50 214 C48.18840615 212.85273455 46.37600528 211.70674161 44.5625 210.5625 C42.70672342 209.37751749 40.85256066 208.1900039 39 207 C38.11183594 206.43023437 37.22367187 205.86046875 36.30859375 205.2734375 C29.72149309 200.96754416 23.34662462 196.40126871 17 191.75 C16.17435547 191.14728271 15.34871094 190.54456543 14.49804688 189.92358398 C10.74080235 187.15010359 7.17472541 184.4490844 4 181 C2.8553125 179.88625 2.8553125 179.88625 1.6875 178.75 C-7.60026127 169.24624428 -7.60026127 169.24624428 -9.0625 164.6875 C-9 162 -9 162 -7 159 C-0.9882019 159.42830168 2.76535953 161.26693015 7.75 164.5625 C8.79824951 165.23587402 8.79824951 165.23587402 9.86767578 165.92285156 C14.86954144 169.16699426 19.69390641 172.62319936 24.47265625 176.1875 C27.79120784 178.56741953 31.25188387 180.63410424 34.78125 182.68359375 C36.69646133 183.81990751 38.49988783 185.02240103 40.3125 186.3125 C42.99156852 187.99470581 44.9054329 188.55791899 48 189 C48.33 189.33 48.66 189.66 49 190 C49.66 189.67 50.32 189.34 51 189 C53.60474038 190.07408957 56.09966038 191.20045633 58.625 192.4375 C59.33140625 192.77587891 60.0378125 193.11425781 60.765625 193.46289062 C62.51381384 194.30154879 64.25735686 195.14987847 66 196 C65.67 195.34 65.34 194.68 65 194 C69.52484261 195.26274677 72.44382458 196.95184964 76 200 C76.33 200 76.66 200 77 200 C76.21869929 197.50447516 76.21869929 197.50447516 75 195 C74.01 194.67 73.02 194.34 72 194 C69 190.55555556 69 190.55555556 69 188 C68.40147217 187.75612549 67.80294434 187.51225098 67.1862793 187.26098633 C64.58735312 185.76199652 63.61342155 184.35105212 62.01953125 181.82421875 C61.23352539 180.58188477 61.23352539 180.58188477 60.43164062 179.31445312 C59.89732422 178.44755859 59.36300781 177.58066406 58.8125 176.6875 C58.26658203 175.83220703 57.72066406 174.97691406 57.15820312 174.09570312 C53.95120619 168.96530282 52 165.16467688 52 159 C50.515 158.01 50.515 158.01 49 157 C49 156.34 49 155.68 49 155 C48.34 155 47.68 155 47 155 C47 154.34 47 153.68 47 153 C46.01 152.67 45.02 152.34 44 152 C44 151.34 44 150.68 44 150 C43.01 149.67 42.02 149.34 41 149 C41 148.34 41 147.68 41 147 C40.34 147 39.68 147 39 147 C39 146.34 39 145.68 39 145 C37.02 144.01 37.02 144.01 35 143 C35 142.34 35 141.68 35 141 C34.28328125 140.72671875 33.5665625 140.4534375 32.828125 140.171875 C24.69641233 136.8023808 17.16051021 132.08370742 10 127 C9.21367188 126.45472656 8.42734375 125.90945312 7.6171875 125.34765625 C2.98755623 121.97856815 0.0946605 118.95431716 -2.6953125 113.98046875 C-5.7876281 109.28644477 -10.71119424 106.02578418 -15.0625 102.5625 C-21.38390762 97.04808059 -26.67273826 90.77383272 -30 83 C-30 82.01 -30 81.02 -30 80 C-29.34 80 -28.68 80 -28 80 C-27.67 78.68 -27.34 77.36 -27 76 C-26.34 76 -25.68 76 -25 76 C-25.598125 75.01 -26.19625 74.02 -26.8125 73 C-30.93336018 65.69351031 -33.27913975 58.50711604 -33 50 C-31.5625 46.8125 -31.5625 46.8125 -30 45 C-28.35 45.33 -26.7 45.66 -25 46 C-25.33 47.98 -25.66 49.96 -26 52 C-25.34 52.33 -24.68 52.66 -24 53 C-23.24443582 54.70823206 -22.4942633 56.4195473 -21.796875 58.15234375 C-20.95605367 60.21438609 -20.95605367 60.21438609 -19.3125 62.8125 C-18 65 -18 65 -18 67 C-17.34 67 -16.68 67 -16 67 C-14.2734375 68.8984375 -14.2734375 68.8984375 -12.375 71.375 C-11.74335937 72.18710938 -11.11171875 72.99921875 -10.4609375 73.8359375 C-9 76 -9 76 -9 78 C-8.34 78 -7.68 78 -7 78 C-7 78.66 -7 79.32 -7 80 C-6.34 80 -5.68 80 -5 80 C-0.23255814 84.30232558 -0.23255814 84.30232558 1 88 C1 84.88742431 0.82638376 82.89234315 0 80 C3.0831351 81.19899698 6.06279492 82.47700477 9 84 C9 83.34 9 82.68 9 82 C10.640625 81.28515625 10.640625 81.28515625 13 81 C15.796875 82.43359375 15.796875 82.43359375 18.75 84.4375 C19.73484375 85.09621094 20.7196875 85.75492187 21.734375 86.43359375 C22.48203125 86.95050781 23.2296875 87.46742187 24 88 C23.45859375 86.20755859 23.45859375 86.20755859 22.90625 84.37890625 C22.43686863 82.77362198 21.96815426 81.16814257 21.5 79.5625 C21.26152344 78.77939453 21.02304688 77.99628906 20.77734375 77.18945312 C19.36469649 72.28554908 18.78397708 68.07694462 19.15014648 62.97436523 C18.91304862 59.85662475 17.11813804 58.16707956 15.1796875 55.83984375 C13.06707273 52.54500416 13.09550728 48.82897354 13 45 C13.66 45 14.32 45 15 45 C15 44.34 15 43.68 15 43 C15.66 42.67 16.32 42.34 17 42 C15.89591797 40.42412109 15.89591797 40.42412109 14.76953125 38.81640625 C4.45673648 24.01557067 4.45673648 24.01557067 1 17 C0.52626953 16.08541016 0.52626953 16.08541016 0.04296875 15.15234375 C-1.95973403 10.99147724 -2.28022579 7.57702123 -2 3 C-1.34 3 -0.68 3 0 3 C0 2.01 0 1.02 0 0 Z M233 60 C233 62.31 233 64.62 233 67 C233.99 67.495 233.99 67.495 235 68 C235.68039601 70.24916933 236.26823112 72.5265707 236.8125 74.8125 C238.83809895 82.93439146 241.32184317 90.98276475 246 98 C246.99 97.505 246.99 97.505 248 97 C246.19047302 90.35035615 243.84427424 84.10342233 241.13671875 77.76953125 C239.50358428 73.79051976 238.38636175 69.83521829 237.5 65.625 C237.335 65.08875 237.17 64.5525 237 64 C236.34 63.67 235.68 63.34 235 63 C235 62.01 235 61.02 235 60 C234.34 60 233.68 60 233 60 Z M27 71 C27.66 73.31 28.32 75.62 29 78 C29.66 78 30.32 78 31 78 C31.07605469 78.66515625 31.15210937 79.3303125 31.23046875 80.015625 C32.26674404 84.03447943 34.18321004 87.21367523 36.3125 90.75 C36.70373047 91.43449219 37.09496094 92.11898437 37.49804688 92.82421875 C39.52870155 96.53399016 39.52870155 96.53399016 42.97045898 98.68041992 C45.55918743 99.08805201 48.13839866 99.34486656 50.75 99.5625 C51.73484375 99.64628906 52.7196875 99.73007813 53.734375 99.81640625 C54.48203125 99.87699219 55.2296875 99.93757813 56 100 C55.29875 99.319375 54.5975 98.63875 53.875 97.9375 C51.15381461 95.23957261 48.73904225 92.33406548 46.33203125 89.35546875 C45.89246094 88.90816406 45.45289062 88.46085937 45 88 C44.34 88 43.68 88 43 88 C42.34 86.68 41.68 85.36 41 84 C40.34 84 39.68 84 39 84 C38.61521484 83.12214844 38.61521484 83.12214844 38.22265625 82.2265625 C36.89437838 79.80765392 35.43475199 78.26801128 33.4375 76.375 C30.09722222 73.19444444 30.09722222 73.19444444 29 71 C28.34 71 27.68 71 27 71 Z M206 102 C206.33 102.99 206.66 103.98 207 105 C207.66 105 208.32 105 209 105 C208.67 104.01 208.34 103.02 208 102 C207.34 102 206.68 102 206 102 Z M781 103 C781.33 103.99 781.66 104.98 782 106 C782.33 105.01 782.66 104.02 783 103 C782.34 103 781.68 103 781 103 Z M84 126 C84.33 126.66 84.66 127.32 85 128 C85.66 127.67 86.32 127.34 87 127 C86.01 126.67 85.02 126.34 84 126 Z M694 143 C695 146 695 146 695 146 Z M781 149 C782 152 782 152 782 152 Z M781 153 C782 155 782 155 782 155 Z M781 156 C782 160 782 160 782 160 Z M742 160 C743 162 743 162 743 162 Z M742 163 C743 166 743 166 743 166 Z M781 168 C782 170 782 170 782 170 Z M781 173 C782 176 782 176 782 176 Z M781 177 C781 184.92 781 192.84 781 201 C781.33 201 781.66 201 782 201 C782 193.08 782 185.16 782 177 C781.67 177 781.34 177 781 177 Z M788 237 C789 239 789 239 789 239 Z M455 629 C454.67 629.99 454.34 630.98 454 632 C454.66 632 455.32 632 456 632 C455.67 631.01 455.34 630.02 455 629 Z M453 633 C452.67 633.66 452.34 634.32 452 635 C452.66 635 453.32 635 454 635 C453.67 634.34 453.34 633.68 453 633 Z M487 637 C488 640 488 640 488 640 Z M425 638 C426 640 426 640 426 640 Z M424 640 C423.34 641.32 422.68 642.64 422 644 C421.34 644 420.68 644 420 644 C418.18932626 645.71331989 418.18932626 645.71331989 416.375 647.875 C415.74335938 648.59429688 415.11171875 649.31359375 414.4609375 650.0546875 C412.79982877 651.86106933 412.79982877 651.86106933 413 654 C412.34 654 411.68 654 411 654 C411 654.66 411 655.32 411 656 C410.34 656 409.68 656 409 656 C409 656.66 409 657.32 409 658 C407.02 658.99 407.02 658.99 405 660 C405 660.66 405 661.32 405 662 C404.34 662 403.68 662 403 662 C403 662.66 403 663.32 403 664 C402.34 664 401.68 664 401 664 C397.98863141 666.77972485 395.35802849 669.64911741 393 673 C394.53907947 674.53907947 396.12227543 674.32362017 398.26171875 674.53515625 C399.13376953 674.62216797 400.00582031 674.70917969 400.90429688 674.79882812 C401.82275391 674.88583984 402.74121094 674.97285156 403.6875 675.0625 C404.58662109 675.15337891 405.48574219 675.24425781 406.41210938 675.33789062 C410.95986761 675.78165574 415.42420881 676.11382565 420 676 C419.505 673.525 419.505 673.525 419 671 C425.90661506 666.39558996 435.12497294 668.02685027 443 669 C444.35439668 666.29120665 444.06501451 663.99066732 444 661 C445.32 661 446.64 661 448 661 C448.66 658.03 449.32 655.06 450 652 C448.18674449 652.11351517 446.37436643 652.24112961 444.5625 652.375 C443.55316406 652.44460938 442.54382813 652.51421875 441.50390625 652.5859375 C440.67761719 652.72257813 439.85132813 652.85921875 439 653 C438.67 653.66 438.34 654.32 438 655 C437.34 655 436.68 655 436 655 C436 655.66 436 656.32 436 657 C434.66666667 657.66666667 433.33333333 658.33333333 432 659 C431.38125 659.37125 430.7625 659.7425 430.125 660.125 C427.34632958 661.26915841 424.97373305 661.13516968 422 661 C421.67 660.01 421.34 659.02 421 658 C421.495 657.0925 421.99 656.185 422.5 655.25 C424.32113264 651.3042126 423.725987 649.19459156 423 645 C423.66 644.34 424.32 643.68 425 643 C424.67 642.01 424.34 641.02 424 640 Z M487 643 C486.80426392 644.43640171 486.61872184 645.87419504 486.4375 647.3125 C486.33308594 648.11300781 486.22867188 648.91351562 486.12109375 649.73828125 C485.85244822 652.16817116 485.85244822 652.16817116 487 655 C489.01508358 655.73323796 489.01508358 655.73323796 491 656 C492.71050559 651.02398374 491.00885647 647.57383705 489 643 C488.34 643 487.68 643 487 643 Z M484 648 C484 649.65 484 651.3 484 653 C484.33 653 484.66 653 485 653 C485 651.35 485 649.7 485 648 C484.67 648 484.34 648 484 648 Z M738 678 C739 680 739 680 739 680 Z M738 681 C738 684 738 684 738 684 Z M736 690 C736.33 690.66 736.66 691.32 737 692 C737.33 691.34 737.66 690.68 738 690 C737.34 690 736.68 690 736 690 Z M728 705 C729 707 729 707 729 707 Z M645 789 C646 791 646 791 646 791 Z M646 791 C645.67 791.66 645.34 792.32 645 793 C645.66 793 646.32 793 647 793 C646.67 792.34 646.34 791.68 646 791 Z M642 796 C642.185625 796.969375 642.37125 797.93875 642.5625 798.9375 C642.97287049 801.79299464 642.94266144 804.26850915 642.5625 807.125 C640.66158716 822.15248668 643.1150172 829.40765141 652.00390625 841.28125 C653.71995243 843.61856534 655.27706083 845.98079733 656.8125 848.4375 C659.72632737 852.88785382 663.25975441 856.69149498 666.8972168 860.54736328 C669.68382532 863.51272822 672.22499226 866.52857333 674.625 869.8125 C678.07343508 874.39925346 682.23814824 877.82202597 687 881 C687.33 881 687.66 881 688 881 C688.98818362 875.52107082 688.9092848 871.50842594 685.984375 866.65625 C683.47192909 863.31152893 680.74087224 860.15841084 678 857 C676.96275277 855.70043271 675.93878049 854.38997668 674.9375 853.0625 C674.48246094 852.46050781 674.02742187 851.85851562 673.55859375 851.23828125 C672.2556058 849.36707299 671.0434629 847.48271759 669.84765625 845.54296875 C669.46037354 844.91962646 669.07309082 844.29628418 668.67407227 843.65405273 C667.91145423 842.41727627 667.15992907 841.17356552 666.42163086 839.92211914 C663.84620029 835.7401799 661.15987093 833.53358394 657 831 C652.64783039 825.7246429 650.49564765 819.30702789 648 813 C647.63390625 812.19304688 647.2678125 811.38609375 646.890625 810.5546875 C645.79089019 807.40018503 645.57681833 804.51750244 645.375 801.1875 C645.30023437 800.02605469 645.22546875 798.86460937 645.1484375 797.66796875 C645.07496094 796.34732422 645.07496094 796.34732422 645 795 C643.7763932 794.9254644 643.7763932 794.9254644 642 796 Z M557 830 C558 832 558 832 558 832 Z M453 857 C454 859 454 859 454 859 Z M444 868 C445 870 445 870 445 870 Z M696 891 C694.81918104 894.37376846 693.82940665 897.70097483 693.0625 901.1875 C691.47421254 906.88664914 689.01418858 908.15410919 684 911 C684.33 911.99 684.66 912.98 685 914 C688.3 913.67 691.6 913.34 695 913 C695.0825 911.948125 695.165 910.89625 695.25 909.8125 C696 906 696 906 698.1875 903.6875 C700.27559059 901.18816349 700.27559059 901.18816349 699.81640625 898.46875 C699.30223196 895.94397695 698.7115218 893.47590355 698 891 C697.34 891 696.68 891 696 891 Z " fill="#201929" transform="translate(44,19)"/>
<path d="M0 0 C0.99 0.33 1.98 0.66 3 1 C2.67 2.32 2.34 3.64 2 5 C1.01 4.67 0.02 4.34 -1 4 C-0.67 2.68 -0.34 1.36 0 0 Z " fill="#39185C" transform="translate(144,41)"/>
<path d="M0 0 C0.33 1.32 0.66 2.64 1 4 C0.34 3.01 -0.32 2.02 -1 1 C-0.67 0.67 -0.34 0.34 0 0 Z " fill="#1A1A1A" transform="translate(788,693)"/>
<path d="M0 0 C0.66 0 1.32 0 2 0 C1.67 1.32 1.34 2.64 1 4 C0.67 2.68 0.34 1.36 0 0 Z " fill="#39185C" transform="translate(408,645)"/>
<path d="M0 0 C0.66 0.33 1.32 0.66 2 1 C0.68 1.33 -0.64 1.66 -2 2 C-1.34 1.34 -0.68 0.68 0 0 Z " fill="#1A1A1A" transform="translate(861,476)"/>
<path d="M0 0 C0.99 0.495 0.99 0.495 2 1 C1.67 1.66 1.34 2.32 1 3 C0.67 2.01 0.34 1.02 0 0 Z " fill="#1A1A1A" transform="translate(785,702)"/>
<path d="M0 0 C0.66 0.66 1.32 1.32 2 2 C1.01 1.67 0.02 1.34 -1 1 C-0.67 0.67 -0.34 0.34 0 0 Z " fill="#1A1A1A" transform="translate(459,689)"/>
<path d="M0 0 C0.33 0.66 0.66 1.32 1 2 C0.34 1.67 -0.32 1.34 -1 1 C-0.67 0.67 -0.34 0.34 0 0 Z " fill="#1A1A1A" transform="translate(326,887)"/>
<path d="M0 0 C0.33 0.66 0.66 1.32 1 2 C0.34 1.67 -0.32 1.34 -1 1 C-0.67 0.67 -0.34 0.34 0 0 Z " fill="#1A1A1A" transform="translate(885,443)"/>
<path d="M0 0 C0.99 0.495 0.99 0.495 2 1 C1.01 1.495 1.01 1.495 0 2 C0 1.34 0 0.68 0 0 Z " fill="#39185C" transform="translate(124,428)"/>
<path d="" fill="#1A1A1A" transform="translate(0,0)"/>
<path d="M0 0 C0.33 0.66 0.66 1.32 1 2 C0.34 1.67 -0.32 1.34 -1 1 C-0.67 0.67 -0.34 0.34 0 0 Z " fill="#1A1A1A" transform="translate(827,150)"/>
<path d="M0 0 C0.99 0.495 0.99 0.495 2 1 C1.01 1.495 1.01 1.495 0 2 C0 1.34 0 0.68 0 0 Z " fill="#1A1A1A" transform="translate(338,145)"/>
<path d="" fill="#1A1A1A" transform="translate(0,0)"/>
<path d="" fill="#1A1A1A" transform="translate(0,0)"/>
<path d="M0 0 C2 1 2 1 2 1 Z " fill="#1A1A1A" transform="translate(279,742)"/>
<path d="M0 0 C2 1 2 1 2 1 Z " fill="#1A1A1A" transform="translate(775,727)"/>
<path d="" fill="#1A1A1A" transform="translate(0,0)"/>
<path d="" fill="#1A1A1A" transform="translate(0,0)"/>
<path d="" fill="#1A1A1A" transform="translate(0,0)"/>
<path d="M0 0 C2 1 2 1 2 1 Z " fill="#1A1A1A" transform="translate(857,478)"/>
<path d="" fill="#39185C" transform="translate(0,0)"/>
<path d="M0 0 C2 1 2 1 2 1 Z " fill="#39185C" transform="translate(881,404)"/>
<path d="M0 0 C2 1 2 1 2 1 Z " fill="#39185C" transform="translate(101,206)"/>
<path d="M0 0 C2 1 2 1 2 1 Z " fill="#1A1A1A" transform="translate(233,112)"/>
<path d="M0 0 C2 1 2 1 2 1 Z " fill="#1E1B29" transform="translate(51,100)"/>
<path d="M0 0 C2 1 2 1 2 1 Z " fill="#1E1B29" transform="translate(53,99)"/>
<path d="M0 0 C2 1 2 1 2 1 Z " fill="#1E1B29" transform="translate(51,97)"/>
<path d="" fill="#1E1B29" transform="translate(0,0)"/>
<path d="M0 0 C2 1 2 1 2 1 Z " fill="#1E1B29" transform="translate(46,94)"/>
<path d="" fill="#1A1A1A" transform="translate(0,0)"/>
<path d="" fill="#39185C" transform="translate(0,0)"/>
<path d="" fill="#1A1A1A" transform="translate(0,0)"/>
<path d="" fill="#1A1A1A" transform="translate(0,0)"/>
<path d="" fill="#1A1A1A" transform="translate(0,0)"/>
<path d="" fill="#1A1A1A" transform="translate(0,0)"/>
<path d="" fill="#1A1A1A" transform="translate(0,0)"/>
<path d="" fill="#1A1A1A" transform="translate(0,0)"/>
<path d="" fill="#1A1A1A" transform="translate(0,0)"/>
<path d="" fill="#1A1A1A" transform="translate(0,0)"/>
<path d="" fill="#1A1A1A" transform="translate(0,0)"/>
<path d="" fill="#1A1A1A" transform="translate(0,0)"/>
<path d="" fill="#1A1A1A" transform="translate(0,0)"/>
<path d="" fill="#1A1A1A" transform="translate(0,0)"/>
<path d="" fill="#1A1A1A" transform="translate(0,0)"/>
<path d="" fill="#1A1A1A" transform="translate(0,0)"/>
<path d="" fill="#1A1A1A" transform="translate(0,0)"/>
<path d="" fill="#1A1A1A" transform="translate(0,0)"/>
<path d="" fill="#1A1A1A" transform="translate(0,0)"/>
<path d="" fill="#1A1A1A" transform="translate(0,0)"/>
<path d="" fill="#1A1A1A" transform="translate(0,0)"/>
<path d="" fill="#1A1A1A" transform="translate(0,0)"/>
<path d="" fill="#1A1A1A" transform="translate(0,0)"/>
<path d="" fill="#1A1A1A" transform="translate(0,0)"/>
<path d="" fill="#1A1A1A" transform="translate(0,0)"/>
<path d="" fill="#1A1A1A" transform="translate(0,0)"/>
<path d="" fill="#1A1A1A" transform="translate(0,0)"/>
<path d="" fill="#39185C" transform="translate(0,0)"/>
<path d="" fill="#39185C" transform="translate(0,0)"/>
<path d="" fill="#1A1A1A" transform="translate(0,0)"/>
<path d="" fill="#39185C" transform="translate(0,0)"/>
<path d="" fill="#39185C" transform="translate(0,0)"/>
<path d="" fill="#39185C" transform="translate(0,0)"/>
<path d="" fill="#39185C" transform="translate(0,0)"/>
<path d="" fill="#39185C" transform="translate(0,0)"/>
<path d="" fill="#39185C" transform="translate(0,0)"/>
<path d="" fill="#39185C" transform="translate(0,0)"/>
<path d="" fill="#1A1A1A" transform="translate(0,0)"/>
<path d="" fill="#1A1A1A" transform="translate(0,0)"/>
<path d="" fill="#1A1A1A" transform="translate(0,0)"/>
<path d="" fill="#1A1A1A" transform="translate(0,0)"/>
<path d="" fill="#1A1A1A" transform="translate(0,0)"/>
<path d="" fill="#1A1A1A" transform="translate(0,0)"/>
<path d="" fill="#39185C" transform="translate(0,0)"/>
<path d="" fill="#39185C" transform="translate(0,0)"/>
<path d="" fill="#1A1A1A" transform="translate(0,0)"/>
<path d="" fill="#39185C" transform="translate(0,0)"/>
<path d="" fill="#39185C" transform="translate(0,0)"/>
<path d="" fill="#1A1A1A" transform="translate(0,0)"/>
<path d="" fill="#39185C" transform="translate(0,0)"/>
<path d="" fill="#39185C" transform="translate(0,0)"/>
<path d="" fill="#39185C" transform="translate(0,0)"/>
<path d="" fill="#39185C" transform="translate(0,0)"/>
<path d="" fill="#39185C" transform="translate(0,0)"/>
<path d="" fill="#39185C" transform="translate(0,0)"/>
<path d="" fill="#39185C" transform="translate(0,0)"/>
<path d="" fill="#1A1A1A" transform="translate(0,0)"/>
<path d="" fill="#1A1A1A" transform="translate(0,0)"/>
<path d="" fill="#39185C" transform="translate(0,0)"/>
<path d="" fill="#39185C" transform="translate(0,0)"/>
<path d="" fill="#1A1A1A" transform="translate(0,0)"/>
<path d="" fill="#1A1A1A" transform="translate(0,0)"/>
<path d="" fill="#1E1B29" transform="translate(0,0)"/>
<path d="" fill="#39185C" transform="translate(0,0)"/>
<path d="" fill="#1A1A1A" transform="translate(0,0)"/>
<path d="" fill="#39185C" transform="translate(0,0)"/>
<path d="" fill="#1A1A1A" transform="translate(0,0)"/>
<path d="" fill="#39185C" transform="translate(0,0)"/>
<path d="" fill="#1A1A1A" transform="translate(0,0)"/>
<path d="" fill="#39185C" transform="translate(0,0)"/>
<path d="" fill="#39185C" transform="translate(0,0)"/>
<path d="" fill="#39185C" transform="translate(0,0)"/>
<path d="" fill="#39185C" transform="translate(0,0)"/>
<path d="" fill="#1A1A1A" transform="translate(0,0)"/>
<path d="" fill="#1A1A1A" transform="translate(0,0)"/>
<path d="" fill="#1A1A1A" transform="translate(0,0)"/>
<path d="" fill="#1A1A1A" transform="translate(0,0)"/>
<path d="" fill="#1A1A1A" transform="translate(0,0)"/>
<path d="" fill="#1A1A1A" transform="translate(0,0)"/>
<path d="" fill="#1A1A1A" transform="translate(0,0)"/>
<path d="" fill="#1A1A1A" transform="translate(0,0)"/>
<path d="" fill="#1A1A1A" transform="translate(0,0)"/>
<path d="" fill="#1A1A1A" transform="translate(0,0)"/>
<path d="" fill="#1A1A1A" transform="translate(0,0)"/>
<path d="" fill="#1A1A1A" transform="translate(0,0)"/>
<path d="" fill="#1A1A1A" transform="translate(0,0)"/>
<path d="" fill="#1A1A1A" transform="translate(0,0)"/>
<path d="" fill="#1A1A1A" transform="translate(0,0)"/>
<path d="" fill="#1A1A1A" transform="translate(0,0)"/>
<path d="" fill="#1A1A1A" transform="translate(0,0)"/>
<path d="" fill="#1A1A1A" transform="translate(0,0)"/>
<path d="" fill="#1A1A1A" transform="translate(0,0)"/>
<path d="" fill="#1A1A1A" transform="translate(0,0)"/>
<path d="" fill="#1A1A1A" transform="translate(0,0)"/>
<path d="" fill="#1E1B29" transform="translate(0,0)"/>
<path d="" fill="#1A1A1A" transform="translate(0,0)"/>
<path d="" fill="#1A1A1A" transform="translate(0,0)"/>
<path d="" fill="#1A1A1A" transform="translate(0,0)"/>
<path d="" fill="#1E1B29" transform="translate(0,0)"/>
<path d="" fill="#1E1B29" transform="translate(0,0)"/>
<path d="" fill="#1E1B29" transform="translate(0,0)"/>
<path d="" fill="#1E1B29" transform="translate(0,0)"/>
<path d="" fill="#1E1B29" transform="translate(0,0)"/>
</svg>
